<svg width="460" height="364" viewBox="0 0 460 364" fill="none" xmlns="http://www.w3.org/2000/svg">
<path d="M157.781 284.047C157.781 327.617 122.37 363.101 78.8903 363.101C35.4109 363.101 0 327.617 0 284.047C0 240.477 35.4109 204.992 78.8903 204.992C122.594 204.992 157.781 240.477 157.781 284.047Z" fill="white"/>
<path d="M119.456 308.078C117.887 319.981 108.474 328.515 94.5786 331.21C93.0097 331.435 91.6654 331.884 89.8724 332.333C89.8724 336.601 89.8724 340.868 89.8724 345.359C85.8382 345.359 82.2522 345.359 77.9939 345.359C77.9939 341.317 77.9939 337.05 77.9939 332.333C60.9608 330.537 51.3236 321.553 47.7377 306.281C54.013 304.709 59.8401 303.362 66.1154 301.789C66.5637 303.137 67.0121 304.26 67.4604 305.383C70.598 314.591 80.9074 319.083 90.7687 315.489C95.2511 313.693 97.2684 310.324 97.7166 306.281C97.9407 302.463 96.1474 299.319 92.3374 297.522C87.4067 295.501 82.2519 293.704 77.0971 291.683C74.4077 290.56 71.7185 289.886 69.0291 288.763C55.806 283.149 49.9788 273.491 51.5476 260.465C53.1164 247.664 61.1847 239.803 75.5284 237.108C76.2007 236.884 76.6493 236.884 77.5458 236.659C77.5458 233.515 77.5458 230.146 77.5458 226.777C81.8041 226.777 89.1999 226.777 89.1999 226.777L89.4237 236.659C89.4237 236.659 92.1134 236.884 98.6129 239.354C108.026 242.723 113.405 249.236 116.542 258.444C111.164 260.465 105.56 262.711 100.182 264.733C98.1645 261.813 96.5958 258.669 94.1305 256.198C90.5445 252.156 85.6137 251.033 80.4589 252.38C76.4247 253.503 73.7357 256.198 73.0634 260.241C72.391 264.508 73.7356 267.877 77.9939 269.674C82.2522 271.47 86.7347 273.042 90.993 274.839C94.5789 276.187 98.3887 277.534 101.975 279.106C116.094 284.496 121.473 293.929 119.456 308.078Z" fill="#FB7101"/>
<path d="M119.456 308.078C117.887 319.981 108.474 328.515 94.5786 331.21C93.0097 331.435 91.6654 331.884 89.8724 332.333C89.8724 336.601 89.8724 340.868 89.8724 345.359C85.8382 345.359 82.2522 345.359 77.9939 345.359C77.9939 341.317 77.9939 337.05 77.9939 332.333C60.9608 330.537 51.3236 321.553 47.7377 306.281C54.013 304.709 59.8401 303.362 66.1154 301.789C66.5637 303.137 67.0121 304.26 67.4604 305.383C70.598 314.591 80.9074 319.083 90.7687 315.489C95.2511 313.693 97.2684 310.324 97.7166 306.281C97.9407 302.463 96.1474 299.319 92.3374 297.522C87.4067 295.501 82.2519 293.704 77.0971 291.683C74.4077 290.56 71.7185 289.886 69.0291 288.763C55.806 283.149 49.9788 273.491 51.5476 260.465C53.1164 247.664 61.1847 239.803 75.5284 237.108C76.2007 236.884 76.6493 236.884 77.5458 236.659C77.5458 233.515 77.5458 230.146 77.5458 226.777C81.8041 226.777 89.1999 226.777 89.1999 226.777L89.4237 236.659C89.4237 236.659 92.1134 236.884 98.6129 239.354C108.026 242.723 113.405 249.236 116.542 258.444C111.164 260.465 105.56 262.711 100.182 264.733C98.1645 261.813 96.5958 258.669 94.1305 256.198C90.5445 252.156 85.6137 251.033 80.4589 252.38C76.4247 253.503 73.7357 256.198 73.0634 260.241C72.391 264.508 73.7356 267.877 77.9939 269.674C82.2522 271.47 86.7347 273.042 90.993 274.839C94.5789 276.187 98.3887 277.534 101.975 279.106C116.094 284.496 121.473 293.929 119.456 308.078Z" fill="white" fill-opacity="0.8"/>
<path d="M423.363 26.4454L356.127 2.63918C351.869 1.06707 347.386 0.393311 342.68 0.393311C338.197 0.393311 333.715 1.06707 329.232 2.63918L261.996 26.4454C246.756 31.8355 236.671 45.9845 236.671 61.7056V79.6726V172.876C236.671 198.03 248.549 222.285 272.082 244.744C289.787 261.588 310.183 273.94 324.302 281.352C329.009 283.822 334.612 285.394 339.991 285.844C339.991 285.844 342.008 285.844 343.353 285.844C344.025 285.844 344.697 285.844 345.37 285.844C350.748 285.394 356.351 284.047 361.058 281.352C375.178 273.94 395.572 261.813 413.278 244.744C436.81 222.285 448.689 198.03 448.689 172.876V79.6726V61.7056C448.689 45.9845 438.603 31.8355 423.363 26.4454Z" fill="#FB7101"/>
<path d="M423.363 26.4454L356.127 2.63918C351.869 1.06707 347.386 0.393311 342.68 0.393311C338.197 0.393311 333.715 1.06707 329.232 2.63918L261.996 26.4454C246.756 31.8355 236.671 45.9845 236.671 61.7056V79.6726V172.876C236.671 198.03 248.549 222.285 272.082 244.744C289.787 261.588 310.183 273.94 324.302 281.352C329.009 283.822 334.612 285.394 339.991 285.844C339.991 285.844 342.008 285.844 343.353 285.844C344.025 285.844 344.697 285.844 345.37 285.844C350.748 285.394 356.351 284.047 361.058 281.352C375.178 273.94 395.572 261.813 413.278 244.744C436.81 222.285 448.689 198.03 448.689 172.876V79.6726V61.7056C448.689 45.9845 438.603 31.8355 423.363 26.4454Z" fill="white" fill-opacity="0.8"/>
<path d="M411.709 49.1284L355.455 29.1402C351.869 27.7926 348.059 27.1189 344.249 27.1189C340.439 27.1189 336.629 27.7926 333.043 29.1402L276.788 49.1284C264.013 53.6202 255.497 65.5233 255.497 78.774V93.8213V171.978C255.497 193.089 265.582 213.526 285.081 232.167C299.873 246.316 317.13 256.647 328.785 262.936C332.819 264.957 337.301 266.304 342.008 266.529C342.008 266.529 343.8 266.529 344.921 266.529C345.593 266.529 346.042 266.529 346.714 266.529C351.421 266.304 355.903 264.957 359.937 262.936C371.816 256.872 388.849 246.541 403.641 232.167C423.363 213.302 433.224 193.089 433.224 171.978V93.8213V78.774C433.224 65.7479 424.484 53.8448 411.709 49.1284Z" fill="white"/>
<path d="M255.497 187.924C255.497 187.924 283.96 212.853 293.597 231.943C303.01 251.033 316.906 286.517 329.457 300.217C341.559 313.019 348.058 320.655 369.574 324.697C391.09 328.74 396.468 329.414 414.174 338.846C431.879 348.054 441.741 363.102 441.741 363.102L257.29 362.877L248.998 352.995L254.601 351.648L227.706 218.917L255.497 187.924Z" fill="#FB7101"/>
<path d="M255.497 187.924C255.497 187.924 283.96 212.853 293.597 231.943C303.01 251.033 316.906 286.517 329.457 300.217C341.559 313.019 348.058 320.655 369.574 324.697C391.09 328.74 396.468 329.414 414.174 338.846C431.879 348.054 441.741 363.102 441.741 363.102L257.29 362.877L248.998 352.995L254.601 351.648L227.706 218.917L255.497 187.924Z" fill="white" fill-opacity="0.8"/>
<path d="M270.065 205.216C261.997 193.538 243.619 174.448 227.93 167.71L222.775 157.828C222.775 157.828 214.483 175.571 212.018 181.635C208.208 190.843 198.122 219.365 198.122 219.365L182.882 215.772L189.157 160.074L181.762 167.036C181.762 167.036 158.229 175.571 150.161 182.982C142.092 190.394 120.353 212.852 114.526 222.51C108.474 232.167 106.009 238.006 109.371 248.113C112.733 258.219 120.801 265.181 138.506 262.935C150.609 261.588 153.298 260.914 153.747 260.689L154.419 270.122L142.989 361.978C142.989 361.978 145.454 362.203 191.847 362.877C238.464 363.55 257.29 362.652 257.29 362.652C257.29 362.652 242.274 281.576 242.722 276.186C243.395 270.796 244.964 266.08 244.964 266.08C244.964 266.08 268.944 270.122 277.909 253.278C286.65 236.883 278.133 216.895 270.065 205.216ZM184.003 281.351L182.658 253.727L188.933 255.748L184.003 281.351Z" fill="#111827"/>
<path d="M304.354 255.749C304.354 255.749 315.561 288.539 336.18 307.404C356.575 326.269 372.264 324.922 381.228 326.943C390.193 328.965 416.415 331.884 442.188 363.102C442.188 363.102 423.139 327.842 393.555 315.489C363.971 303.137 355.006 305.832 340.887 300.217C322.285 292.581 304.354 255.749 304.354 255.749Z" fill="#111827"/>
<path d="M304.354 255.749C304.354 255.749 315.561 288.539 336.18 307.404C356.575 326.269 372.264 324.922 381.228 326.943C390.193 328.965 416.415 331.884 442.188 363.102C442.188 363.102 423.139 327.842 393.555 315.489C363.971 303.137 355.006 305.832 340.887 300.217C322.285 292.581 304.354 255.749 304.354 255.749Z" fill="white" fill-opacity="0.1"/>
<path d="M215.38 112.911C215.38 112.911 213.138 121.446 217.172 129.081C217.172 129.081 220.31 126.162 224.344 126.836C228.379 127.509 231.292 131.777 229.947 136.717C228.603 141.658 225.689 143.23 223.896 143.23L222.775 157.829L217.397 168.384C217.397 168.384 207.311 174.897 197.226 172.202C187.14 169.507 188.037 166.812 188.037 166.812L188.709 162.545V159.85C188.709 159.85 179.296 157.829 179.969 143.904C180.641 129.98 183.554 116.954 183.554 116.954L185.795 109.093C185.795 109.093 189.83 111.788 197.45 112.462C205.07 113.136 215.38 112.911 215.38 112.911Z" fill="white"/>
<path d="M125.508 225.43L145.006 225.205L148.816 213.302C148.816 213.302 131.559 216.222 125.508 225.43Z" fill="white"/>
<path d="M292.701 117.403C292.701 117.403 312.647 142.557 321.164 142.557C329.68 142.557 339.991 134.022 355.679 118.75C371.592 103.478 382.349 88.2063 382.349 88.2063L401.4 93.3719C401.4 93.3719 384.59 122.793 367.557 143.679C350.3 164.566 333.267 180.063 321.613 179.613C309.958 179.389 297.632 172.876 287.546 154.235C277.685 135.37 275.22 120.996 275.22 120.996C275.22 120.996 291.132 116.729 292.701 117.403Z" fill="#FB7101"/>
<path d="M292.701 117.403C292.701 117.403 312.647 142.557 321.164 142.557C329.68 142.557 339.991 134.022 355.679 118.75C371.592 103.478 382.349 88.2063 382.349 88.2063L401.4 93.3719C401.4 93.3719 384.59 122.793 367.557 143.679C350.3 164.566 333.267 180.063 321.613 179.613C309.958 179.389 297.632 172.876 287.546 154.235C277.685 135.37 275.22 120.996 275.22 120.996C275.22 120.996 291.132 116.729 292.701 117.403Z" fill="white" fill-opacity="0.8"/>
<path d="M185.572 216.895L194.76 192.864L192.519 183.656L198.571 175.346L203.053 185.678L199.467 194.212L197.674 218.917L185.572 216.895Z" fill="#FB7101"/>
<path d="M182.658 254.626L184.003 281.352L188.934 255.749L182.658 254.626Z" fill="#FB7101"/>
<path d="M359.041 241.824C356.128 242.498 353.213 243.172 350.524 243.621C349.627 243.846 349.179 244.295 349.179 245.193C348.955 247.888 348.507 250.583 348.058 253.278C347.834 253.952 347.386 254.626 346.938 255.075C344.696 256.647 342.455 257.995 340.214 259.567C339.766 259.791 339.094 260.016 338.646 260.016C335.732 259.342 332.819 258.668 329.681 257.995C329.233 257.995 328.56 258.219 328.112 258.444C326.319 260.914 324.751 263.609 323.182 266.08C322.734 266.754 322.734 267.203 323.182 267.877C324.975 270.122 326.767 272.593 328.56 274.839C328.785 275.288 329.008 275.962 329.008 276.636C328.56 279.331 328.112 282.026 327.664 284.721C327.44 285.394 327.215 286.068 326.767 286.293C324.526 287.865 322.061 289.212 319.82 290.784C319.148 291.234 318.698 291.683 318.923 292.581C319.595 295.501 320.268 298.42 320.716 301.116C320.94 302.014 321.388 302.463 322.284 302.463C324.974 302.688 327.664 303.137 330.353 303.586C331.249 303.586 331.698 304.035 332.147 304.933C333.491 307.179 334.836 309.201 336.405 311.222C337.077 311.896 337.076 312.569 336.852 313.468C336.18 316.163 335.508 319.082 334.835 321.778C334.611 322.676 334.836 323.125 335.508 323.574C337.974 325.146 340.439 326.719 342.904 328.291C343.8 328.74 344.248 328.74 344.921 328.066C347.162 326.269 349.403 324.473 351.869 322.9C352.317 322.451 353.213 322.451 353.661 322.451C356.351 322.901 359.04 323.574 361.506 324.248C362.178 324.473 362.851 324.922 363.299 325.371C364.868 327.841 366.437 330.312 367.782 332.782C368.23 333.456 368.678 333.905 369.574 333.681C372.488 333.007 375.402 332.333 378.091 331.884C378.988 331.659 379.211 331.435 379.435 330.536C379.659 327.617 380.108 324.697 380.556 321.553C380.556 320.879 381.228 320.205 381.676 319.756C383.694 318.184 385.935 316.837 387.952 315.04C388.849 314.366 389.522 314.142 390.418 314.366C393.107 315.04 395.797 315.489 398.262 316.163C399.159 316.387 399.607 316.163 400.055 315.489C401.624 313.019 403.193 310.548 404.762 308.078C405.21 307.179 405.21 306.73 404.537 306.056C402.744 303.811 401.176 301.565 399.383 299.319C398.71 298.645 398.71 297.971 398.934 297.073C399.607 294.378 400.054 291.683 400.727 288.988C400.951 288.539 401.175 287.865 401.847 287.416C404.313 285.844 407.003 284.271 409.468 282.699C410.141 282.25 410.364 281.801 410.14 280.903C409.468 277.983 408.796 275.063 408.348 272.368C408.124 271.47 407.675 271.245 406.778 271.021C403.865 270.796 400.951 270.347 398.038 269.898C397.366 269.898 396.693 269.224 396.469 268.775C394.9 266.529 393.107 264.283 391.539 262.037C391.314 261.588 391.09 260.914 391.09 260.241C391.762 257.096 392.435 253.728 393.331 250.583C390.418 248.787 387.504 246.99 384.591 245.193C384.142 244.969 383.47 245.193 383.021 245.418C380.556 247.215 378.315 249.011 376.073 250.808C375.625 251.033 374.953 251.257 374.505 251.257C371.816 251.033 369.126 250.583 366.212 250.134C365.54 250.134 364.868 249.685 364.644 249.011C363.075 246.765 361.506 244.295 360.162 242.049C360.386 241.824 359.938 241.6 359.041 241.824ZM381.229 283.373C383.246 292.581 377.419 301.789 368.006 303.811C358.593 305.832 349.628 299.993 347.611 290.56C345.594 281.352 351.645 272.368 360.834 270.347C370.023 268.326 379.212 274.165 381.229 283.373Z" fill="white"/>
<path d="M184.451 113.81L185.795 109.318C185.795 109.318 194.088 112.687 202.381 113.136C210.673 113.585 219.413 113.136 219.413 113.136C219.413 113.136 217.172 122.569 220.534 127.51C220.534 127.51 222.103 126.836 224.12 126.836C226.137 126.836 227.034 127.285 228.603 129.306C228.603 129.306 232.861 122.793 233.757 118.077C234.654 113.361 234.205 109.543 231.292 107.521C228.154 105.275 226.137 104.826 226.137 104.826C226.137 104.826 223.896 95.169 217.845 92.9231C211.793 90.6772 204.398 90.4527 200.139 94.2706C200.139 94.2706 192.967 90.4526 187.813 93.8214C181.761 98.0886 181.313 102.58 181.762 105.949C181.986 109.318 183.554 111.789 184.451 113.81Z" fill="#111827"/>
<path d="M368.229 331.659C367.109 331.659 366.661 330.986 366.437 330.312C365.092 327.841 363.523 325.371 361.954 322.9C361.73 322.451 361.058 322.227 360.609 322.002C358.144 321.328 355.455 320.655 352.765 320.205C352.317 320.205 351.644 320.205 351.42 320.43C348.955 322.227 346.49 324.248 344.697 325.595C344.024 326.045 342.904 326.494 342.008 325.82C339.767 324.248 337.525 322.676 334.611 321.104C333.715 320.43 333.267 319.756 333.491 318.633C333.939 317.286 334.164 315.938 334.388 314.591C334.836 313.243 335.06 311.671 335.509 310.324C335.733 309.65 335.508 309.201 335.06 308.751C333.491 306.73 332.147 304.484 330.802 302.238C330.354 301.565 330.129 301.34 329.457 301.34C328.112 301.115 326.544 300.891 325.199 300.891C323.854 300.666 322.733 300.442 321.389 300.442C320.492 300.442 319.596 299.993 319.372 298.645C318.699 295.501 318.252 292.806 317.579 290.111C317.131 288.763 318.027 288.089 318.7 287.64C320.717 286.517 323.181 284.945 325.647 283.148C325.871 282.924 326.32 282.475 326.32 281.801C326.768 279.106 327.216 276.411 327.665 273.716C327.665 273.267 327.664 272.817 327.216 272.368C325.647 270.347 324.078 268.101 321.837 265.406C321.165 264.508 321.165 263.834 321.613 262.936C322.285 261.813 322.958 260.69 323.854 259.567C324.751 258.219 325.647 256.647 326.767 255.3C327.215 254.626 328.336 254.401 329.008 254.401C330.577 254.626 332.146 255.075 333.491 255.524C334.835 255.973 336.405 256.198 337.75 256.423C337.974 256.423 338.646 256.423 338.871 256.198C341.336 254.626 343.577 253.054 345.594 251.706C346.042 251.482 346.49 250.808 346.49 250.359C346.939 247.439 347.387 244.519 347.611 242.274C347.835 240.926 348.283 240.477 349.403 240.252C352.093 239.803 355.007 239.129 357.921 238.456C359.49 238.006 359.937 238.905 360.385 239.579C361.506 241.6 363.075 244.07 364.867 246.541C365.092 246.99 365.54 247.215 365.988 247.215C368.453 247.664 371.143 248.113 374.057 248.337C374.505 248.337 374.953 248.113 375.177 247.888C376.298 246.99 377.418 246.316 378.539 245.418C379.66 244.519 381.005 243.621 382.125 242.498C382.797 242.049 383.918 241.824 384.366 242.274C386.608 243.621 388.849 245.193 391.09 246.541L392.882 247.664C393.107 248.337 392.659 251.032 392.659 251.032C391.987 253.503 391.538 255.749 391.09 258.219C391.09 258.444 391.09 259.118 391.314 259.567C392.883 262.037 394.451 264.283 396.244 266.304C396.468 266.754 397.141 266.978 397.365 267.203C400.054 267.652 402.969 267.877 406.106 268.326C407.451 268.55 407.899 268.999 408.123 270.122C408.571 272.817 409.243 275.737 409.916 278.657C410.14 279.78 409.916 280.453 408.795 281.127C405.657 282.924 403.416 284.496 401.175 285.843C400.951 286.068 400.503 286.517 400.503 286.966C400.279 288.089 400.054 289.212 399.83 290.56C399.606 292.132 399.158 293.479 398.934 295.052C398.71 295.725 398.71 296.175 399.158 296.624C400.055 297.747 400.951 298.87 401.847 299.993C402.744 301.115 403.64 302.238 404.313 303.361C404.985 304.035 405.209 304.933 404.537 306.056C402.968 308.302 401.399 310.773 399.83 313.468C399.382 314.142 398.71 314.815 397.142 314.591C395.797 314.366 394.676 313.917 393.331 313.692C391.986 313.468 390.642 313.019 389.297 312.794C388.401 312.569 388.176 312.794 387.279 313.243C386.159 314.142 385.039 315.04 383.694 315.938C382.798 316.612 381.901 317.286 380.78 317.96C380.332 318.409 379.884 318.858 379.884 319.307C379.436 322.451 378.987 325.595 378.763 328.066C378.539 329.189 378.091 329.863 376.971 330.087C373.833 330.761 371.143 331.21 368.454 331.884C368.678 331.435 368.453 331.659 368.229 331.659ZM352.318 318.858C355.679 319.532 358.368 319.981 360.834 320.655C361.506 320.879 362.403 321.328 363.075 322.002C364.644 324.473 366.213 327.168 367.557 329.638C368.006 330.536 368.23 330.312 368.678 330.087C371.367 329.413 374.281 328.74 377.194 328.291C377.866 328.066 377.867 328.066 377.867 327.392C378.091 324.697 378.539 321.553 378.988 318.409C379.212 317.51 379.884 316.612 380.333 316.163C381.229 315.489 382.125 314.815 383.246 314.141C384.366 313.243 385.487 312.569 386.608 311.671C387.728 310.773 388.4 310.548 389.745 310.997C391.09 311.446 392.435 311.671 393.78 311.896C395.125 312.12 396.244 312.569 397.589 312.794C400.279 309.65 401.848 307.179 403.416 304.933C403.641 304.484 403.64 304.26 403.192 303.81C402.296 302.688 401.4 301.565 400.503 300.442C399.607 299.319 398.71 298.196 397.814 297.073C397.141 296.174 396.917 295.501 397.365 294.153C397.813 292.581 398.038 291.234 398.262 289.661C398.486 288.539 398.71 287.191 398.934 286.068C399.158 285.394 399.607 284.496 400.279 284.047C402.52 282.699 404.985 281.127 407.899 279.33C408.347 279.106 408.572 278.881 408.348 278.208C407.675 275.063 407.002 272.368 406.554 269.673C406.33 268.999 406.33 268.999 405.658 268.999C402.52 268.775 399.607 268.326 396.917 267.876C396.021 267.652 395.349 267.203 394.9 266.529C393.332 264.508 391.762 262.262 389.969 259.791C389.521 259.342 389.297 258.219 389.521 257.546C389.969 255.075 390.642 252.829 391.09 250.359L391.539 248.337L390.194 247.439C387.952 246.092 385.711 244.519 383.47 243.172C381.453 244.295 380.108 245.193 378.988 246.092C377.867 246.99 376.746 247.888 375.626 248.562C374.954 249.011 374.281 249.236 373.609 249.236C370.471 248.787 367.781 248.562 365.316 248.113C364.42 247.888 363.748 247.439 363.299 246.765C361.506 244.295 359.938 241.6 358.817 239.803C354.783 240.028 351.869 240.701 349.179 241.151C348.507 241.375 348.507 241.375 348.283 242.049C348.059 244.295 347.611 247.214 347.162 250.134C346.938 251.032 346.266 251.931 345.817 252.38C343.8 253.728 341.783 255.3 339.094 256.872C338.421 257.321 337.525 257.546 337.077 257.321C335.732 257.096 334.164 256.647 332.819 256.423C331.25 255.973 329.905 255.749 328.336 255.3C326.543 256.872 325.647 258.444 324.75 259.791C324.078 260.914 323.406 262.037 322.509 263.16C322.285 263.609 322.285 263.609 322.509 264.059C324.526 266.754 326.319 268.999 327.888 271.021C328.336 271.695 328.561 272.593 328.561 273.267C328.113 275.962 327.664 278.657 327.216 281.352C326.992 282.026 326.543 282.924 325.871 283.373C323.406 285.17 320.716 286.742 318.923 287.865C318.251 288.314 318.251 288.314 318.475 288.988C319.148 291.683 319.82 294.602 320.268 297.522C320.492 298.196 320.492 298.196 321.164 298.42C322.509 298.645 323.854 298.645 324.975 298.87C326.319 299.094 327.664 299.319 329.233 299.319C330.353 299.543 331.026 299.993 331.698 300.891C333.043 303.137 334.612 305.158 335.956 307.179C336.629 308.078 336.853 308.976 336.629 309.874C336.181 311.222 335.957 312.794 335.509 314.141C335.285 315.489 334.835 316.837 334.611 318.184C334.387 318.633 334.612 318.858 335.06 319.307C337.749 321.104 340.214 322.676 342.456 324.023C342.904 324.248 343.128 324.473 343.576 323.799C345.369 322.227 347.835 320.43 350.524 318.409C350.748 319.082 351.421 318.858 352.318 318.858ZM363.075 302.014C354.558 302.014 347.61 296.175 345.817 287.865C343.8 278.208 349.852 268.775 359.489 266.754C360.834 266.529 361.955 266.304 363.299 266.304C371.816 266.304 378.763 272.144 380.78 280.453C381.901 285.17 381.004 289.886 378.315 293.929C375.849 297.971 371.815 300.666 367.109 301.789C365.54 301.789 364.42 302.014 363.075 302.014ZM363.299 267.652C362.179 267.652 360.834 267.877 359.713 268.101C350.748 270.122 345.145 278.657 346.938 287.64C348.507 295.501 355.231 300.891 363.075 300.891C364.196 300.891 365.541 300.666 366.661 300.442C370.919 299.543 374.73 296.848 376.971 293.255C379.436 289.662 380.108 285.17 379.212 280.903C377.643 273.042 370.919 267.652 363.299 267.652Z" fill="#111827"/>
<path d="M324.974 175.796C321.612 175.796 318.026 174.897 314.44 173.325C307.941 170.406 302.339 165.689 297.408 159.176C291.581 151.316 286.874 142.332 283.064 130.429C282.167 127.509 281.271 124.59 280.375 121.445C279.926 120.098 279.478 118.526 279.254 117.178C279.702 116.28 292.028 112.911 292.028 112.911C293.373 112.462 294.494 112.237 295.839 111.788C296.959 111.564 297.631 112.013 297.855 112.462C303.683 120.322 311.079 127.734 320.492 135.145C322.957 137.167 325.647 137.616 328.785 136.942C331.474 136.268 334.163 134.921 337.525 132.899C344.697 128.408 350.972 122.568 356.127 117.403C365.54 107.97 375.177 97.1899 385.487 83.9393C385.935 83.2655 386.607 82.5918 387.952 83.0409C392.21 84.1639 396.468 85.5114 400.726 86.6344L405.209 87.7573C393.554 111.114 381.453 128.857 368.902 143.904C362.627 151.54 354.782 160.299 345.145 167.261C342.456 169.283 339.542 171.079 335.956 172.876C332.37 174.897 328.784 175.796 324.974 175.796ZM280.598 117.178C281.047 118.526 281.271 119.649 281.719 120.772C282.615 123.916 283.288 126.835 284.408 129.755C288.218 141.434 292.701 150.417 298.528 158.053C303.459 164.566 308.838 169.058 315.113 171.978C322.061 175.122 329.009 175.122 335.508 171.753C339.094 169.956 342.008 168.16 344.473 166.138C353.886 159.176 361.73 150.642 367.781 143.006C380.332 127.958 392.435 110.216 404.985 89.1048C404.761 88.8802 400.503 87.7573 400.503 87.7573C396.245 86.6344 391.986 85.5114 387.728 84.1639C387.28 83.9393 387.28 83.7147 386.607 84.6131C376.298 97.6392 366.66 108.644 357.023 118.077C351.868 123.242 345.593 129.081 338.197 133.798C334.835 136.044 331.921 137.391 329.008 138.065C325.422 138.963 322.285 138.289 319.596 136.044C310.182 128.408 302.562 120.996 296.735 112.911C294.942 113.136 293.597 113.36 292.252 113.809L280.598 117.178Z" fill="#111827"/>
<path d="M72.3913 178.491C71.7189 177.592 71.9428 177.368 72.1669 177.143L129.542 158.502C129.99 158.278 130.214 158.502 130.438 158.952C130.662 159.401 130.438 159.625 129.99 159.85L72.3913 178.491C72.6154 178.491 72.6154 178.491 72.3913 178.491Z" fill="#111827"/>
<path d="M139.402 121.446C138.954 121.446 61.8572 72.0368 61.8572 72.0368C61.6331 71.8122 61.4087 71.363 61.6329 71.1384C61.857 70.9138 62.305 70.6892 62.5291 70.9138L139.85 120.323C140.075 120.548 140.299 120.997 140.075 121.221C139.851 121.446 139.626 121.446 139.402 121.446Z" fill="#111827"/>
<path d="M168.09 72.4859C167.866 72.4859 167.418 72.2614 167.418 71.8122L164.056 44.4125C164.056 43.9633 164.28 43.7388 164.728 43.7388C165.177 43.7388 165.401 43.9633 165.401 44.4125L168.763 71.8122C168.763 72.2614 168.538 72.4859 168.09 72.4859Z" fill="#111827"/>
<path d="M224.12 140.086C223.672 139.862 218.965 136.044 218.965 136.044C218.965 134.921 224.12 130.429 224.12 130.429C224.344 130.204 224.792 130.204 225.016 130.429C225.241 130.654 225.241 131.103 225.016 131.327L220.31 135.37L224.568 138.739C224.792 138.963 224.792 139.413 224.568 139.637C224.344 139.862 224.12 140.086 224.12 140.086Z" fill="#111827"/>
<path d="M189.157 138.065C187.813 136.942 188.037 134.472 190.278 124.59C190.502 123.916 190.502 123.467 190.502 123.467C190.502 123.018 190.726 122.793 191.175 122.793C191.623 122.793 191.847 123.018 191.847 123.467C191.847 123.692 191.847 123.692 191.623 124.814C189.606 133.124 189.382 135.819 189.382 136.493C190.278 136.268 192.071 135.37 192.968 134.921C193.192 134.696 193.64 134.921 193.864 135.146C194.088 135.37 193.864 135.819 193.64 136.044C193.416 136.493 190.726 138.065 189.157 138.065Z" fill="#111827"/>
<path d="M194.76 143.904C194.536 143.904 189.382 143.006 186.244 143.006C185.796 143.006 185.572 142.781 185.572 142.332C185.572 141.883 185.796 141.658 186.244 141.658C189.606 141.883 194.76 142.557 194.985 142.557C195.433 142.557 195.657 143.006 195.433 143.23C195.209 143.68 194.984 143.904 194.76 143.904Z" fill="#111827"/>
<path d="M201.933 131.103C201.26 131.103 200.812 130.429 201.036 129.98L201.26 126.836C201.26 126.162 201.933 125.713 202.381 125.938C203.053 125.938 203.501 126.612 203.277 127.061L203.053 130.205C203.277 130.654 202.605 131.328 201.933 131.103Z" fill="#111827"/>
<path d="M185.124 129.755C184.452 129.755 184.003 129.082 184.227 128.632L184.451 125.488C184.451 124.814 185.124 124.365 185.572 124.59C186.244 124.59 186.692 125.264 186.468 125.713L186.244 128.857C186.469 129.306 185.796 129.755 185.124 129.755Z" fill="#111827"/>
<path d="M205.294 124.59L200.14 124.141C199.691 124.141 199.467 123.692 199.467 123.467C199.467 123.018 199.915 122.793 200.14 122.793L205.294 123.242C205.743 123.242 205.966 123.692 205.966 123.916C205.742 124.365 205.518 124.59 205.294 124.59Z" fill="#111827"/>
<path d="M188.485 123.467L183.331 123.242C182.882 123.242 182.658 123.018 182.658 122.568C182.658 122.119 182.882 121.895 183.331 121.895L188.485 122.119C188.934 122.119 189.157 122.344 189.157 122.793C189.157 123.018 188.934 123.467 188.485 123.467Z" fill="#111827"/>
<path d="M200.812 173.55C191.399 173.325 187.588 167.935 187.588 167.71C187.364 167.486 187.364 167.036 187.813 166.812C188.037 166.587 188.485 166.587 188.709 167.036C188.709 167.036 192.295 172.202 200.363 172.427C204.397 172.427 213.587 171.528 217.621 167.71C217.845 167.486 218.293 167.486 218.517 167.71C218.741 167.935 218.741 168.384 218.517 168.609C214.259 172.427 205.518 173.55 200.812 173.55Z" fill="#111827"/>
<path d="M392.435 235.087C391.762 234.637 391.762 234.188 391.986 233.964C414.846 213.751 426.5 192.415 426.5 170.405V60.8068C426.5 52.2725 420.673 44.4119 412.157 41.4923L346.041 17.9106C341.111 16.1139 335.508 16.1139 330.577 17.9106L264.462 41.4923C255.945 44.4119 250.118 52.2725 250.118 60.8068V145.027C250.118 145.476 249.894 145.701 249.446 145.701C248.998 145.701 248.773 145.476 248.773 145.027V60.8068C248.773 51.5987 254.825 43.289 264.014 40.1448L330.129 16.5631C335.507 14.7664 341.335 14.7664 346.49 16.5631L412.605 40.1448C421.57 43.289 427.845 51.5987 427.845 60.8068V170.405C427.845 192.639 415.967 214.424 392.882 234.862C392.658 235.086 392.435 235.087 392.435 235.087Z" fill="#111827"/>
<path d="M194.536 161.647C192.519 161.647 190.502 161.422 188.485 160.973C183.33 159.176 180.417 155.583 179.52 150.642C178.624 145.701 179.296 140.76 179.744 136.044L179.969 133.349C180.865 125.264 181.986 116.28 184.899 109.093C185.123 108.644 185.347 108.644 185.795 108.644C186.244 108.869 186.244 109.093 186.244 109.543C183.555 116.505 182.434 125.488 181.537 133.349L181.313 135.819C180.641 140.536 180.192 145.476 180.865 150.193C181.761 154.684 184.226 157.829 188.037 159.176C192.743 160.524 197.226 160.075 200.587 159.625C201.036 159.625 201.26 159.85 201.26 160.075C201.26 160.524 201.036 160.748 200.812 160.748C199.243 161.197 197.002 161.647 194.536 161.647Z" fill="#111827"/>
<path d="M197.45 220.039C197.002 220.039 196.778 219.59 196.778 219.366L198.571 194.212C198.571 193.987 202.156 185.453 202.156 185.453C202.38 185.004 202.605 185.004 203.053 185.004C203.501 185.228 203.501 185.453 203.501 185.902L199.915 194.212L198.122 219.141C198.122 219.815 197.898 220.039 197.45 220.039Z" fill="#111827"/>
<path d="M199.467 194.885C199.243 194.885 192.295 193.538 192.295 193.538C191.847 193.538 191.623 193.089 191.847 192.64C191.847 192.19 192.295 191.966 192.743 192.19L199.691 193.538C200.14 193.538 200.364 193.987 200.139 194.436C199.915 194.661 199.691 194.885 199.467 194.885Z" fill="#111827"/>
<path d="M183.331 216.895C182.658 216.671 182.658 216.222 182.658 215.997L191.623 192.64L189.83 183.207C189.83 182.758 190.054 182.534 190.278 182.309C190.726 182.309 190.951 182.534 191.175 182.758L193.192 192.415C193.192 192.865 184.227 216.446 184.227 216.446C184.003 216.895 183.779 216.895 183.331 216.895Z" fill="#111827"/>
<path d="M407.674 241.6C407.002 241.151 407.003 240.701 407.227 240.477C430.087 218.467 441.741 194.886 441.741 170.406V60.807C441.741 45.7597 431.88 32.2844 417.312 27.1189L351.197 3.53726C342.904 0.617629 333.714 0.617629 325.646 3.53726L259.531 27.1189C244.964 32.2844 235.102 45.7597 235.102 60.807V68.6676C235.102 69.1167 234.878 69.3413 234.43 69.3413C233.982 69.3413 233.758 69.1167 233.758 68.6676V60.807C233.758 45.3105 243.843 31.1615 259.083 25.7714L325.199 2.18973C333.715 -0.729909 343.128 -0.729909 351.644 2.18973L417.76 25.7714C432.776 31.1615 443.086 45.0859 443.086 60.807V170.406C443.086 195.335 431.431 219.366 408.123 241.375C407.899 241.6 407.674 241.6 407.674 241.6Z" fill="#111827"/>
<path d="M222.775 143.904C222.327 143.904 222.103 143.904 221.655 143.904C220.086 143.68 218.517 142.781 217.396 141.209C217.172 140.985 217.173 140.536 217.621 140.311C217.845 140.086 218.293 140.086 218.517 140.536C219.414 141.659 220.534 142.332 221.879 142.557C222.327 142.557 222.999 142.557 223.448 142.557C224.792 142.332 225.913 141.659 227.034 140.536C228.154 139.413 228.827 137.841 229.051 136.044C229.499 133.798 229.051 131.552 227.706 129.756C227.482 129.306 227.258 129.082 226.809 128.857C226.137 128.183 225.241 127.734 224.12 127.51C222.103 127.285 218.965 127.959 217.396 129.98C216.724 130.878 216.276 130.879 216.051 130.654C215.827 130.429 215.604 129.98 215.828 129.756C218.293 126.836 221.879 125.938 224.344 126.162C225.689 126.387 226.81 127.061 227.706 127.734C228.154 128.183 228.379 128.408 228.827 128.857C230.172 130.878 230.62 133.349 230.396 136.044C230.171 138.065 229.275 139.862 227.93 141.209C226.809 142.557 225.241 143.455 223.672 143.68C223.448 143.904 222.999 143.904 222.775 143.904Z" fill="#111827"/>
<path d="M228.378 130.205C227.706 129.98 227.706 129.531 227.706 129.082C236.671 114.259 232.861 110.216 230.396 107.97C228.378 105.949 226.137 105.5 226.137 105.5C225.689 105.5 225.465 105.051 225.689 104.826C225.689 104.377 226.137 104.152 226.361 104.377C226.361 104.377 229.051 104.826 230.844 106.847C233.981 109.992 238.24 114.483 228.827 130.205C228.827 129.98 228.602 130.205 228.378 130.205Z" fill="#111827"/>
<path d="M217.172 130.205C216.5 129.531 212.466 123.018 214.707 113.361C214.707 112.912 215.155 112.687 215.603 112.912C216.052 112.912 216.276 113.361 216.051 113.81C213.81 123.018 217.621 129.306 217.621 129.306C217.845 129.531 217.621 129.98 217.396 130.205C217.396 130.205 217.396 130.205 217.172 130.205Z" fill="#111827"/>
<path d="M222.551 158.503C222.103 158.503 221.879 158.054 221.879 157.829L223 143.231C223 142.782 223.224 142.557 223.672 142.557C224.12 142.557 224.344 143.006 224.344 143.231L223.224 157.829C223.224 158.278 223 158.503 222.551 158.503Z" fill="#111827"/>
<path d="M206.639 194.886C205.966 194.436 197.226 174.224 197.226 174.224L185.123 192.191C184.899 192.415 184.451 192.64 184.227 192.415C184.002 192.191 183.779 191.741 184.003 191.517L196.778 172.651C197.898 172.651 207.087 194.212 207.087 194.212C207.311 194.661 207.087 194.886 206.639 195.11C206.863 194.886 206.639 194.886 206.639 194.886Z" fill="#111827"/>
<path d="M220.086 224.756C219.414 224.531 219.413 224.082 219.413 223.633L227.482 210.607L222.551 196.907C223 196.009 235.102 191.966 235.102 191.966L227.482 168.609L222.551 159.176C221.879 160.748 220.31 163.893 218.517 167.935C214.259 177.368 207.984 191.741 202.381 207.463C201.036 211.281 199.915 214.874 198.571 219.59C198.571 220.039 198.122 220.04 197.674 220.04C197.226 220.04 197.226 219.59 197.226 219.141C198.571 214.425 199.691 210.831 201.26 207.013C206.863 191.292 213.138 176.694 217.397 167.486C220.086 161.422 222.103 157.604 222.103 157.604C223.224 157.604 229.051 168.384 229.051 168.384L236.895 192.415C237.119 192.864 236.895 193.089 236.447 193.314L224.345 197.356L229.275 210.607C229.275 211.281 220.983 224.531 220.983 224.531C220.534 224.756 220.31 224.756 220.086 224.756Z" fill="#111827"/>
<path d="M184.227 282.699C183.554 281.801 185.348 270.796 188.485 255.524C188.485 255.075 188.933 254.85 189.382 255.075C189.83 255.075 190.054 255.524 189.83 255.973C187.589 266.304 186.244 274.614 185.572 279.106L198.571 257.995C198.795 257.77 199.243 257.545 199.467 257.77C199.691 257.995 199.915 258.444 199.691 258.668L184.899 282.475C184.675 282.699 184.451 282.699 184.227 282.699Z" fill="#111827"/>
<path d="M80.0109 357.487C38.5487 357.487 4.70688 323.574 4.70688 282.026C4.70688 240.477 38.5487 206.564 80.0109 206.564C92.7858 206.564 103.32 209.035 113.181 214.2C113.405 214.425 113.629 214.874 113.405 215.099C113.181 215.323 112.732 215.548 112.508 215.323C102.871 210.158 92.5616 207.912 80.0109 207.912C39.221 207.912 6.05127 241.151 6.05127 282.026C6.05127 322.901 39.221 356.14 80.0109 356.14C90.0963 356.14 99.9578 354.118 109.371 350.076C109.819 349.851 110.043 350.076 110.267 350.525C110.491 350.974 110.267 351.199 109.819 351.423C100.406 355.466 90.3204 357.487 80.0109 357.487Z" fill="#111827"/>
<path d="M128.197 340.643C127.524 340.194 127.524 339.745 127.749 339.52C134.472 333.905 140.299 327.168 144.558 319.532C144.782 319.307 145.23 319.083 145.454 319.307C145.678 319.532 145.902 319.981 145.678 320.205C141.196 327.842 135.369 334.804 128.421 340.418L128.197 340.643Z" fill="#111827"/>
<path d="M84.4932 344.236H73.7354C73.2871 344.236 73.0635 344.012 73.0635 343.563V331.21C57.8233 329.189 48.8584 320.43 45.4966 304.709C45.4966 304.26 45.7206 304.035 45.9447 303.811L62.9781 299.319C63.2022 299.319 63.6502 299.319 63.8743 299.768C64.0984 300.217 64.3225 300.891 64.3225 301.34C64.5466 302.014 64.7708 302.688 64.9949 303.362C66.3396 307.629 69.2534 310.997 73.0635 312.794C76.8735 314.591 81.3559 314.591 85.3901 313.019C88.976 311.447 90.9927 308.527 91.2168 304.26C91.441 300.667 89.8721 297.747 86.7344 296.175C83.5968 294.827 80.4592 293.48 77.3215 292.132C75.7527 291.458 74.408 291.009 72.8391 290.335C71.9426 289.886 71.2701 289.662 70.3736 289.437C68.8047 288.763 67.0119 288.09 65.4431 287.416C53.1165 281.577 47.5134 271.919 49.0822 258.444C50.651 245.418 58.2711 237.333 71.4942 234.413C72.8389 233.964 72.8391 224.531 72.8391 224.531C72.8391 224.082 73.0634 223.858 73.5116 223.858H84.2695C84.7177 223.858 84.9414 224.082 84.9414 224.531L85.1657 233.739C86.2863 233.964 88.7519 234.638 93.2342 236.21C97.9408 238.007 101.527 240.702 104.44 244.52C104.664 244.744 104.664 245.193 104.216 245.418C103.992 245.643 103.544 245.643 103.32 245.193C100.63 241.6 97.0442 238.905 92.5618 237.333C86.5105 235.087 84.2695 234.862 84.2695 234.862C83.5971 234.189 83.3726 224.981 83.3726 224.981H73.9597V234.189C72.1668 235.312 71.9424 235.312 71.4942 235.312C58.7194 238.007 51.5478 245.643 49.979 258.219C48.4102 271.021 53.789 280.229 65.6674 285.844C67.2362 286.517 69.0291 287.191 70.5979 287.865C71.4944 288.09 72.3911 288.539 73.0635 288.763C74.6323 289.437 75.977 289.886 77.5459 290.56C80.6835 291.908 84.0449 293.031 87.1826 294.603C90.7685 296.399 92.7859 299.768 92.5618 303.811C92.3377 308.527 89.8723 311.896 85.8382 313.693C81.3558 315.489 76.6493 315.489 72.391 313.468C68.1327 311.447 64.9947 307.853 63.65 303.137C63.4259 302.463 63.2022 301.789 62.9781 301.116C62.7539 300.891 62.7535 300.442 62.5294 300.217L46.841 304.26C50.2028 319.083 58.9435 327.392 73.7354 329.189C73.9595 329.189 74.4079 329.414 74.4079 329.863V342.215H83.8208V329.863C84.269 329.189 85.3901 328.965 85.3901 328.965C86.7348 328.74 87.6312 328.291 88.7519 328.066C101.303 325.596 109.595 317.286 110.939 305.607C112.732 291.683 107.802 282.475 95.4754 276.636C93.2342 275.513 90.9927 274.614 88.9756 273.716C87.855 273.267 86.5107 272.818 85.3901 272.144C84.2695 271.695 83.1489 271.246 82.0283 270.796C79.1147 269.673 76.2008 268.326 73.2873 266.978C69.2531 264.957 67.6844 261.588 68.3567 256.647C69.0291 252.38 71.7186 249.461 75.7528 248.338C81.1317 246.99 85.838 248.338 88.9756 252.38C90.5445 254.177 91.665 256.198 92.7856 258.219C93.2338 258.893 93.6823 259.792 94.1305 260.465L99.061 258.444C99.5093 258.22 99.7337 258.444 99.9578 258.893C100.182 259.342 99.9574 259.567 99.5092 259.792L93.9062 262.038C92.5614 260.915 91.8894 260.016 91.4412 258.893C90.3206 256.872 89.2001 254.851 87.6312 253.054C84.0453 248.338 79.1146 248.562 75.7528 249.461C72.1669 250.359 69.9253 253.054 69.253 256.647C68.5806 260.915 69.9257 263.834 73.5116 265.406C76.4251 266.754 79.3385 268.101 82.252 269.224C83.3726 269.673 84.4932 270.123 85.6138 270.572C86.7344 271.021 87.8553 271.47 89.2 271.919C91.4412 272.818 93.6824 273.716 95.9236 274.839C108.698 281.127 113.853 290.785 112.06 305.158C110.491 317.286 101.527 326.269 88.7519 328.74C87.6312 328.964 86.5107 329.189 85.3901 329.414C84.9418 329.414 84.9414 341.991 84.9414 341.991C85.1655 344.012 84.7174 344.236 84.4932 344.236Z" fill="#111827"/>
<path d="M458.55 363.775H4.93071C4.48247 363.775 4.25824 363.551 4.25824 363.102C4.25824 362.653 4.48247 362.428 4.93071 362.428H458.55C458.999 362.428 459.222 362.653 459.222 363.102C459.222 363.551 458.774 363.775 458.55 363.775Z" fill="#111827"/>
<path d="M302.786 249.461C299.873 244.744 296.734 238.905 293.149 232.167C286.873 220.713 261.772 192.191 252.359 185.902C252.135 185.678 251.911 185.228 252.135 185.004C252.359 184.779 252.807 184.555 253.031 184.779C262.668 191.292 287.77 219.815 294.269 231.494C297.855 238.231 300.993 244.071 303.458 248.562C303.682 248.787 303.458 249.236 303.234 249.461C303.01 249.461 303.01 249.461 302.786 249.461Z" fill="#111827"/>
<path d="M442.637 364C427.845 340.643 410.588 324.248 390.865 314.815C390.641 314.591 390.417 314.366 390.641 313.917C390.865 313.468 391.09 313.468 391.538 313.692C411.485 323.125 428.965 339.745 443.309 362.877C443.533 363.102 443.31 363.551 443.086 363.775C442.862 363.775 442.861 364 442.637 364Z" fill="#111827"/>
<path d="M132.903 264.059C126.404 264.059 119.904 262.711 114.974 258.444C112.06 255.974 109.819 252.38 108.474 248.338C107.578 245.418 106.009 239.579 107.578 234.862C108.25 232.392 109.371 229.922 110.94 227.002C114.525 220.264 119.456 214.2 123.042 209.709C129.99 201.399 137.61 193.314 146.351 185.004C152.626 179.165 161.815 175.122 169.659 171.529C174.365 169.508 178.848 167.486 182.21 165.24C182.434 165.016 182.882 165.24 183.106 165.465C183.33 165.69 183.106 166.139 182.882 166.363C179.52 168.609 174.813 170.631 170.107 172.652C162.263 176.245 153.298 180.063 147.023 185.902C138.282 194.212 130.662 202.073 123.714 210.382C119.904 214.874 115.198 220.938 111.612 227.451C110.043 230.371 108.923 232.841 108.25 235.087C106.905 239.579 108.25 244.969 109.146 247.888C110.491 251.706 112.508 255.075 115.198 257.321C123.042 264.059 134.696 262.936 145.006 261.364C156.212 259.792 166.297 256.872 177.951 251.931C178.399 251.707 178.624 251.931 178.848 252.38C179.072 252.829 178.848 253.054 178.4 253.279C166.746 257.995 156.212 261.139 145.006 262.711C141.42 263.61 137.162 264.059 132.903 264.059Z" fill="#111827"/>
<path d="M257.066 363.775H142.541C141.869 362.652 146.799 313.243 148.592 290.335C150.161 271.021 151.057 261.364 151.057 261.139C151.057 260.69 151.505 260.465 151.73 260.465C152.178 260.465 152.402 260.914 152.402 261.139C152.402 261.139 151.505 271.021 149.936 290.335C148.368 311.896 143.885 356.139 143.213 362.428H256.17C254.601 354.792 242.498 294.378 241.826 277.534C241.602 273.941 242.274 270.572 244.067 266.08C244.291 265.631 244.516 265.631 244.964 265.631C245.412 265.855 245.412 266.08 245.412 266.529C243.843 270.796 243.171 273.941 243.395 277.534C244.068 295.276 257.739 362.203 257.963 362.877C257.515 363.775 257.29 363.775 257.066 363.775Z" fill="#111827"/>
<path d="M442.189 364C432.776 352.321 412.606 332.333 378.763 326.943C378.315 326.943 378.09 326.494 378.315 326.269C378.315 325.82 378.763 325.595 378.988 325.82C413.502 331.21 433.673 351.647 442.862 363.101C443.086 363.326 443.086 363.775 442.638 364C442.414 363.775 442.413 364 442.189 364Z" fill="#111827"/>
<path d="M125.508 226.104C128.645 219.142 136.938 215.099 148.592 213.302C149.04 213.302 149.265 213.527 149.265 213.751C149.265 214.201 149.04 214.425 148.816 214.425C138.282 216.222 130.663 219.591 126.852 224.532L145.006 224.307C145.454 224.307 145.678 224.532 145.678 224.981C145.678 225.43 145.454 225.655 145.006 225.655L125.508 226.104Z" fill="#111827"/>
<path d="M250.118 267.428C247.429 267.428 244.515 267.203 241.377 266.754C189.83 260.465 140.748 240.926 140.3 240.702C140.075 240.477 139.851 240.252 139.851 239.803L149.488 208.81C149.488 208.586 149.936 208.361 150.161 208.361L239.584 227.451C240.032 227.451 240.257 227.9 240.033 228.349C240.033 228.799 239.584 229.023 239.136 228.798L150.161 209.933L140.748 239.579C146.351 241.825 192.743 259.342 240.929 265.406C258.411 267.652 270.737 263.385 276.564 253.503C284.632 239.579 278.357 218.018 268.048 203.869C248.774 177.817 227.482 168.384 227.258 168.384C226.809 168.16 226.81 167.935 226.81 167.486C227.034 167.037 227.258 167.037 227.706 167.037C227.93 167.037 249.446 176.694 268.944 202.971C279.702 217.345 285.977 239.579 277.685 253.952C274.547 260.465 266.703 267.428 250.118 267.428Z" fill="#111827"/>
<path d="M184.227 282.699C183.554 282.25 176.159 253.728 176.159 253.728C176.159 253.279 176.383 253.054 176.607 252.829C177.055 252.829 177.279 253.054 177.503 253.278L183.106 274.839C182.882 269.673 182.434 262.262 181.986 253.728C181.986 253.279 182.21 253.054 182.658 253.054C183.106 253.054 183.331 253.279 183.331 253.728C183.779 269.449 184.899 281.576 184.899 281.801C184.899 282.475 184.675 282.699 184.227 282.699Z" fill="#111827"/>
<path d="M182.658 216.895C182.21 216.895 181.985 216.671 181.985 216.222C182.434 206.34 183.106 199.827 184.003 192.864L184.227 191.741C186.02 173.55 188.261 162.994 188.261 162.77V161.871L177.503 172.202L166.073 189.72L172.573 195.784C172.797 196.682 165.849 209.259 165.849 209.259L166.745 212.404C166.745 212.853 166.521 213.077 166.297 213.302C165.849 213.302 165.625 213.077 165.401 212.853L164.504 209.259C164.504 208.81 171.228 196.233 171.228 196.233L164.728 189.945C164.728 189.046 176.383 171.079 176.383 171.079L188.261 159.625C189.382 160.075 189.382 162.77 189.382 162.77C189.382 162.994 187.14 173.55 185.347 191.741L185.123 192.864C184.451 199.827 183.778 206.34 183.106 216.222C183.33 216.671 183.106 216.895 182.658 216.895Z" fill="#111827"/>
<path d="M120.801 227.675C120.128 227.002 120.129 226.552 120.577 226.328C120.577 226.328 123.266 225.205 125.507 224.756C125.956 224.756 126.18 224.98 126.18 225.205C126.18 225.654 125.956 225.879 125.732 225.879C123.715 226.328 121.249 227.451 121.249 227.451C121.025 227.675 121.025 227.675 120.801 227.675Z" fill="#111827"/>
<path d="M183.33 118.526C182.658 118.077 170.107 103.479 181.089 92.6985C187.813 86.1854 197.898 92.0248 199.915 93.3723C201.484 92.2493 207.759 88.656 217.172 92.4739C224.12 95.169 226.585 104.377 226.81 104.602C226.81 105.051 226.586 105.275 226.361 105.5C225.913 105.5 225.689 105.275 225.465 105.051C225.465 105.051 222.999 96.2919 216.724 93.8214C206.415 89.7788 200.587 94.7198 200.363 94.9444C199.467 94.9444 188.709 87.3084 181.985 93.8214C171.676 103.928 183.554 117.628 183.779 117.628C184.003 117.852 184.003 118.301 183.779 118.526C183.779 118.301 183.555 118.526 183.33 118.526Z" fill="#111827"/>
<path d="M208.656 113.81C200.139 113.81 186.244 112.911 183.33 107.297C183.106 107.072 183.33 106.623 183.554 106.398C183.778 106.174 184.227 106.398 184.451 106.623C187.589 112.687 207.759 112.687 215.155 112.238C215.603 112.238 215.828 112.462 215.828 112.911C215.828 113.36 215.603 113.585 215.155 113.585C215.155 113.585 212.466 113.81 208.656 113.81Z" fill="#111827"/>
</svg>
