<svg width="86" height="45" viewBox="0 0 86 45" fill="none" xmlns="http://www.w3.org/2000/svg">
<path d="M29.1719 25.9818L38.9026 0.913382C39.1109 0.385422 39.6527 0.0334473 40.2569 0.0334473H44.4241C45.0284 0.0334473 45.5701 0.385422 45.7785 0.913382L51.321 15.2075H53.4672C53.9047 15.2075 54.3006 15.4617 54.4464 15.8527L55.3008 18.0623C55.3841 18.2775 55.2174 18.4926 54.9674 18.4926H52.5921L53.113 19.8027H55.2591C55.6966 19.8027 56.0925 20.0569 56.2384 20.448L57.0927 22.6576C57.176 22.8726 57.0093 23.0877 56.7593 23.0877H54.384L55.4883 25.9427C55.5716 26.1577 55.405 26.3728 55.1549 26.3728H50.821C50.3834 26.3728 49.9875 26.1186 49.8416 25.7276L48.8207 23.0682H35.7146C35.4646 23.0682 35.2978 22.8335 35.3812 22.638L36.2355 20.4284C36.3813 20.0373 36.7772 19.7831 37.2148 19.7831H47.5288L47.0079 18.473H37.4857C37.2357 18.473 37.0689 18.2384 37.1523 18.0428L38.0066 15.8332C38.1524 15.4421 38.5483 15.1879 38.9859 15.1879H45.716L41.6112 4.58956C41.5071 4.29625 41.0695 4.29625 40.9445 4.58956L32.7558 25.7667C32.6099 26.1577 32.214 26.4119 31.7765 26.4119H29.5053C29.2553 26.4119 29.0886 26.1773 29.1719 25.9818Z" fill="url(#paint0_linear_422_210)"/>
<path d="M6.91805 37.8513V37.734C6.93889 37.734 7.0014 37.734 7.10559 37.7144C7.20977 37.6949 7.31395 37.6753 7.41813 37.6362C7.52232 37.5971 7.6265 37.5384 7.70985 37.4602C7.79315 37.382 7.83486 37.2842 7.83486 37.1864C7.83486 37.1082 7.81404 36.9909 7.77233 36.8345C7.73068 36.678 7.64732 36.463 7.56396 36.2283C7.48061 35.9937 7.37642 35.7199 7.27224 35.4266C7.16806 35.1333 7.04305 34.8204 6.91805 34.5076H3.45921C3.33419 34.8204 3.20918 35.1137 3.08416 35.3875C2.95914 35.6612 2.83413 35.9545 2.72995 36.2283C2.54242 36.6585 2.45907 36.9714 2.45907 37.1473C2.45907 37.2451 2.50074 37.3429 2.56325 37.4015C2.62576 37.4798 2.72995 37.5189 2.83413 37.5776C2.93831 37.6166 3.06332 37.6557 3.18834 37.6753C3.31336 37.6949 3.43838 37.7144 3.54256 37.734V37.8513H0.750488V37.7144C0.979688 37.6949 1.16722 37.6362 1.33391 37.5384C1.5006 37.4407 1.58394 37.382 1.60478 37.3624C1.66729 37.3038 1.77147 37.1669 1.89649 36.9518C2.04234 36.7367 2.20904 36.4238 2.39656 36.0132C2.58409 35.6221 2.77162 35.1919 3.00082 34.7031C3.23001 34.2142 3.45921 33.7058 3.68841 33.1974C3.91761 32.689 4.16765 32.161 4.39685 31.6331C4.62605 31.1051 4.85525 30.6163 5.06361 30.1665L4.9386 29.8928C5.08445 29.8341 5.23031 29.7559 5.35532 29.6581C5.48034 29.5603 5.58452 29.4821 5.68871 29.3844C5.79289 29.2866 5.8554 29.1888 5.93874 29.1106C6.00125 29.0129 6.06376 28.9542 6.0846 28.8955H6.18878C6.45965 29.5603 6.70968 30.2056 6.95972 30.8118C7.20977 31.418 7.43896 32.0046 7.64732 32.5522C7.87651 33.1192 8.08487 33.6472 8.29324 34.1751C8.5016 34.7031 8.70996 35.2115 8.91833 35.7199C9.02251 35.9741 9.10587 36.1892 9.18923 36.3456C9.27258 36.5216 9.35588 36.6976 9.46006 36.9127C9.48095 36.9518 9.5226 37.0105 9.58513 37.0887C9.6476 37.1669 9.73096 37.2451 9.83514 37.3429C9.93932 37.4211 10.0643 37.4993 10.2102 37.5776C10.3561 37.6362 10.5228 37.6753 10.7311 37.6949V37.8318H6.91805V37.8513ZM5.23031 30.4794C5.1678 30.5771 5.10529 30.7532 5.00111 30.9878C4.89692 31.2225 4.77191 31.4962 4.62605 31.809C4.4802 32.1415 4.3135 32.4935 4.14681 32.9041C3.95929 33.3147 3.77176 33.7645 3.56339 34.2338H6.79304C6.64718 33.8622 6.50133 33.5103 6.33463 33.1387C6.18878 32.7672 6.04292 32.4152 5.89707 32.0828C5.75122 31.7504 5.6262 31.4375 5.50118 31.1638C5.397 30.89 5.31365 30.6554 5.23031 30.4794Z" fill="#111827"/>
<path d="M22.9837 37.8515V37.7147C23.3587 37.6951 23.6713 37.6169 23.9213 37.4996C24.1713 37.3627 24.338 37.2258 24.4214 37.0498C24.463 36.9521 24.5047 36.8152 24.5464 36.6588C24.5672 36.5023 24.588 36.3459 24.6089 36.1699C24.6297 35.6419 24.6297 35.114 24.6297 34.6447C24.6297 34.1558 24.6297 33.6474 24.6297 33.139V29.678C24.338 30.2841 24.0879 30.8316 23.8379 31.34C23.6087 31.8484 23.3587 32.3373 23.1295 32.8066C22.9003 33.2954 22.6503 33.7843 22.4211 34.2732C22.1918 34.7815 21.921 35.3291 21.6293 35.9157C21.5876 35.9939 21.5251 36.1308 21.4417 36.3068C21.3584 36.4828 21.2959 36.6588 21.2126 36.8347C21.1292 37.0108 21.0667 37.1867 20.9834 37.3431C20.9208 37.4996 20.8792 37.5973 20.8584 37.6365H20.775C20.5041 37.0303 20.2333 36.4437 19.9415 35.8375C19.6706 35.2509 19.3998 34.6642 19.1497 34.1167C18.8997 33.5692 18.6496 33.0608 18.4205 32.5719C18.1913 32.0831 17.9829 31.6725 17.8162 31.3009C17.6287 30.9294 17.4828 30.6165 17.3578 30.3623C17.2328 30.1081 17.1703 29.9322 17.1078 29.8539C17.1078 30.3819 17.1078 30.8707 17.1078 31.2814C17.1078 31.692 17.1078 32.1026 17.0869 32.4938C17.0869 32.9044 17.0869 33.315 17.0869 33.7648C17.0869 34.2145 17.0869 34.7229 17.0869 35.3291C17.0869 35.7202 17.1078 36.0331 17.1286 36.3263C17.1494 36.6001 17.212 36.8347 17.3162 37.0303C17.4203 37.2258 17.587 37.3627 17.7954 37.48C18.0037 37.5973 18.2955 37.6756 18.6705 37.7147V37.832H15.2742V37.7147C15.5867 37.656 15.8159 37.5778 16.0243 37.4605C16.2118 37.3431 16.3576 37.2063 16.4827 37.0108C16.5869 36.8152 16.6702 36.5805 16.7327 36.2873C16.7953 35.9939 16.8161 35.6419 16.8161 35.2313C16.8369 34.8793 16.8369 34.4687 16.8577 33.9994C16.8577 33.5301 16.8786 33.0217 16.8786 32.4742C16.8786 32.2395 16.8786 32.044 16.8786 31.868C16.8786 31.7116 16.8786 31.5551 16.8786 31.3987C16.8786 31.2423 16.8786 31.0858 16.8786 30.9294C16.8786 30.7729 16.8786 30.5774 16.8577 30.3232C16.8577 30.0886 16.7953 29.9126 16.7119 29.7757C16.6077 29.6388 16.5035 29.5215 16.3785 29.4433C16.2535 29.3651 16.1076 29.3064 15.9618 29.2673C15.8159 29.2282 15.6909 29.2087 15.5867 29.1891V29.0913H18.358L21.4626 35.7202C21.8376 34.9576 22.2127 34.1754 22.5877 33.4128C22.942 32.6502 23.2754 31.9658 23.567 31.34C23.8588 30.7143 24.0879 30.2059 24.2755 29.7952C24.463 29.3846 24.5672 29.15 24.588 29.0913H27.3593V29.2087C27.005 29.2087 26.7342 29.2868 26.5467 29.4237C26.3591 29.5606 26.2341 29.7171 26.1716 29.893C26.1091 30.0299 26.0883 30.245 26.0674 30.5383C26.0466 30.8316 26.0466 31.1249 26.0258 31.3987C26.0258 31.7898 26.0049 32.1613 26.0049 32.5328C26.0049 32.9044 26.0049 33.2759 26.0049 33.6474C26.0049 34.0776 26.0049 34.5274 26.0049 34.9576C26.0049 35.3877 26.0049 35.8375 26.0258 36.3263C26.0258 36.4828 26.0466 36.6392 26.0674 36.7956C26.0883 36.9521 26.1299 37.0694 26.1716 37.1672C26.1716 37.1867 26.2133 37.2258 26.2758 37.2845C26.3383 37.3431 26.4217 37.4018 26.5258 37.48C26.63 37.5582 26.755 37.6169 26.9217 37.656C27.0676 37.7147 27.2551 37.7342 27.4635 37.7538V37.8711H22.9837V37.8515Z" fill="#111827"/>
<path d="M34.006 37.8513V37.734C34.0268 37.734 34.0894 37.734 34.1935 37.7144C34.2977 37.6949 34.4019 37.6753 34.5061 37.6362C34.6103 37.5971 34.7144 37.5384 34.7978 37.4602C34.8811 37.382 34.9228 37.2842 34.9228 37.1864C34.9228 37.1082 34.902 36.9909 34.8603 36.8345C34.8186 36.678 34.7353 36.463 34.6519 36.2283C34.5686 35.9937 34.4644 35.7199 34.3602 35.4266C34.256 35.1333 34.131 34.8204 34.006 34.5076H30.5472C30.4222 34.8204 30.2971 35.1137 30.1721 35.3875C30.0471 35.6612 29.9221 35.9545 29.8179 36.2283C29.6303 36.6585 29.547 36.9714 29.547 37.1473C29.547 37.2451 29.5887 37.3429 29.6512 37.4015C29.7137 37.4798 29.8179 37.5189 29.9221 37.5776C30.0263 37.6166 30.1513 37.6557 30.2763 37.6753C30.4013 37.6949 30.5263 37.7144 30.6305 37.734V37.8513H27.8593V37.7144C28.0884 37.6949 28.276 37.6362 28.4427 37.5384C28.6094 37.4407 28.6927 37.382 28.7135 37.3624C28.7761 37.3038 28.8802 37.1669 29.0053 36.9518C29.1511 36.7367 29.3178 36.4238 29.5053 36.0132C29.6929 35.6221 29.8804 35.1919 30.1096 34.7031C30.3388 34.2142 30.568 33.7058 30.7972 33.1974C31.0264 32.689 31.2764 32.161 31.5056 31.6331C31.7348 31.1051 31.964 30.6163 32.1724 30.1665L32.0474 29.8928C32.1933 29.8341 32.3391 29.7559 32.4641 29.6581C32.5891 29.5603 32.6933 29.4821 32.7975 29.3844C32.9016 29.2866 32.9642 29.1888 33.0475 29.1106C33.11 29.0129 33.1517 28.9542 33.1934 28.8955H33.2975C33.5684 29.5603 33.8185 30.2056 34.0685 30.8118C34.3185 31.418 34.5477 32.0046 34.7561 32.5522C34.9853 33.1192 35.1936 33.6472 35.402 34.1751C35.6104 34.7031 35.8187 35.2115 36.0271 35.7199C36.1313 35.9741 36.2146 36.1892 36.298 36.3456C36.3814 36.5216 36.4647 36.6976 36.5688 36.9127C36.5897 36.9518 36.6314 37.0105 36.6939 37.0887C36.7564 37.1669 36.8397 37.2451 36.9439 37.3429C37.0481 37.4211 37.1731 37.4993 37.319 37.5776C37.4648 37.6362 37.6315 37.6753 37.8399 37.6949V37.8318H34.006V37.8513ZM32.2974 30.4794C32.2349 30.5771 32.1724 30.7532 32.0682 30.9878C31.964 31.2225 31.839 31.4962 31.6932 31.809C31.5473 32.1415 31.3806 32.4935 31.2139 32.9041C31.0264 33.3147 30.8389 33.7645 30.6305 34.2338H33.8602C33.7143 33.8622 33.5684 33.5103 33.4017 33.1387C33.2559 32.7672 33.11 32.4152 32.9642 32.0828C32.8183 31.7504 32.6933 31.4375 32.5683 31.1638C32.4641 30.89 32.3807 30.6554 32.2974 30.4794Z" fill="#111827"/>
<path d="M45.4459 37.8515C45.3626 37.7734 45.3209 37.7147 45.2793 37.6951C45.2376 37.656 45.1959 37.6169 45.1542 37.5582C45.1126 37.4996 45.05 37.4409 44.9876 37.3431C44.925 37.2454 44.8208 37.1085 44.675 36.913C44.5083 36.6783 44.3625 36.4828 44.2375 36.3068C44.1124 36.1308 43.9874 35.9353 43.8624 35.7593C43.7374 35.5833 43.5915 35.4073 43.4456 35.2118C43.2998 35.0358 43.1123 34.8207 42.9039 34.6056C42.7372 34.41 42.5497 34.2536 42.3413 34.0776C42.1329 33.9212 41.9246 33.8234 41.6954 33.7648C41.5287 33.7257 41.4036 33.7257 41.3204 33.7257C41.237 33.7257 41.1328 33.7257 41.0286 33.7061C41.0286 34.2341 41.0286 34.6838 41.0286 35.0749C41.0286 35.466 41.0286 35.7983 41.0495 36.0526C41.0495 36.3068 41.0703 36.5415 41.0703 36.7174C41.0703 36.913 41.1328 37.0498 41.2162 37.1867C41.2786 37.2845 41.4245 37.4018 41.612 37.5192C41.8204 37.6365 42.0913 37.6951 42.4455 37.7147V37.832H38.2991V37.7147C38.5074 37.6756 38.7158 37.6365 38.9242 37.5778C39.1325 37.5192 39.2784 37.4214 39.3825 37.2845C39.4242 37.2454 39.4659 37.1672 39.4867 37.0694C39.5075 36.9716 39.5284 36.8543 39.5493 36.737C39.5701 36.6196 39.5701 36.4828 39.5909 36.3459C39.5909 36.209 39.6117 36.0721 39.6117 35.9353C39.6117 35.8179 39.6117 35.6615 39.6117 35.466C39.6117 35.2704 39.6117 35.0553 39.6326 34.8207C39.6326 34.586 39.6326 34.3514 39.6326 34.1167C39.6326 33.8625 39.6326 33.6279 39.6326 33.4128V31.0467C39.6326 30.9099 39.6326 30.7534 39.6326 30.597C39.6326 30.4406 39.6117 30.3037 39.6117 30.1668C39.5909 30.0299 39.5701 29.9126 39.5493 29.7952C39.5284 29.678 39.4867 29.5997 39.4242 29.5606C39.2992 29.4237 39.1534 29.3455 38.9866 29.3064C38.82 29.2673 38.6324 29.2282 38.4033 29.1891V29.0913C38.4657 29.0913 38.6533 29.0913 38.945 29.0913C39.2367 29.0913 39.5701 29.0913 39.9451 29.0913C40.3202 29.0913 40.6953 29.0913 41.0703 29.0913C41.4454 29.0913 41.7371 29.0913 41.9871 29.0913C42.5705 29.0913 43.0915 29.1109 43.529 29.1304C43.9874 29.1695 44.3833 29.2673 44.7584 29.4629C45.1334 29.6584 45.4459 29.9126 45.6751 30.2255C45.9044 30.5383 46.0294 30.949 46.0294 31.4378C46.0294 31.7311 45.9668 32.0049 45.8627 32.2396C45.7377 32.4742 45.5918 32.6893 45.4043 32.8653C45.2167 33.0412 44.9876 33.1977 44.7167 33.3345C44.4666 33.4715 44.1749 33.5692 43.904 33.667V33.7061C44.0499 33.7843 44.1957 33.8821 44.3416 34.019C44.4875 34.1558 44.6125 34.3122 44.7375 34.4883C44.9667 34.8011 45.2167 35.1335 45.4668 35.4855C45.7377 35.8375 45.9668 36.1699 46.1752 36.4437C46.4878 36.8738 46.8003 37.1672 47.1128 37.3627C47.4254 37.5582 47.7796 37.6756 48.1755 37.7342V37.8515H45.4459ZM44.1541 30.2645C43.9457 29.9517 43.6124 29.6975 43.2165 29.502C43.0081 29.4042 42.7997 29.3455 42.5705 29.3064C42.3413 29.2673 42.0913 29.2478 41.8413 29.2478C41.6537 29.2478 41.5078 29.2477 41.4037 29.2673C41.2995 29.2673 41.1953 29.2868 41.1536 29.2868C41.1536 29.326 41.1328 29.3846 41.1328 29.4237C41.1328 29.4629 41.112 29.5019 41.112 29.5606C41.112 29.6193 41.112 29.6975 41.0911 29.7952C41.0911 29.893 41.0703 30.0494 41.0703 30.2255C41.0703 30.5187 41.0495 30.8316 41.0495 31.1836C41.0495 31.5356 41.0495 31.8876 41.0495 32.22C41.0495 32.5524 41.0495 32.8457 41.0495 33.0999C41.0495 33.3345 41.0495 33.491 41.0495 33.5692C41.4037 33.5692 41.7371 33.5496 42.0496 33.5301C42.3622 33.5106 42.6538 33.4519 42.9456 33.3541C43.2165 33.2759 43.4665 33.1586 43.654 33.0217C43.8624 32.8848 44.0082 32.7284 44.1333 32.5524C44.2583 32.3764 44.3416 32.1809 44.4041 31.9853C44.4666 31.7898 44.4875 31.5747 44.4875 31.3596C44.4875 30.949 44.3833 30.5774 44.1541 30.2645Z" fill="#111827"/>
<path d="M55.5708 37.8515C55.5292 37.832 55.4875 37.8124 55.4458 37.7929C55.4041 37.7734 55.3624 37.7147 55.2999 37.656C54.7374 37.0499 54.2164 36.4828 53.7164 35.9353C53.2163 35.3877 52.6954 34.8402 52.1745 34.2927C51.9453 34.058 51.7994 33.9016 51.7161 33.8625C51.6327 33.8038 51.5702 33.7843 51.5077 33.7843C51.4452 33.7843 51.3827 33.8038 51.3619 33.8234C51.341 33.8429 51.3202 33.9016 51.2993 33.9603C51.2993 34.3905 51.2993 34.7816 51.2993 35.1726C51.2993 35.5441 51.2993 35.8766 51.3202 36.1308C51.3202 36.3654 51.3411 36.5805 51.3827 36.7956C51.4035 36.9912 51.4661 37.1476 51.5494 37.265C51.6119 37.3431 51.6953 37.4214 51.7994 37.48C51.9036 37.5387 52.0078 37.5778 52.1328 37.6169C52.2578 37.656 52.3829 37.6756 52.4871 37.6951C52.6121 37.7147 52.6954 37.7342 52.7996 37.7342V37.8515H48.6323V37.7342C48.8407 37.6951 49.0491 37.656 49.2574 37.5973C49.4658 37.5387 49.6116 37.4409 49.7158 37.3236C49.7574 37.265 49.7992 37.2063 49.82 37.1085C49.8408 37.0108 49.8616 36.8934 49.8825 36.7761C49.9033 36.6588 49.9033 36.5219 49.9033 36.3654C49.9033 36.2286 49.9033 36.0917 49.9033 35.9548C49.9033 35.8375 49.9033 35.6811 49.9033 35.4855C49.9033 35.2899 49.9033 35.0749 49.9033 34.8598C49.9033 34.6251 49.9033 34.3905 49.9033 34.1363C49.9033 33.8821 49.9033 33.6474 49.9033 33.4323V31.0663C49.9033 30.7534 49.8825 30.4797 49.8616 30.2059C49.8408 29.9517 49.7783 29.7561 49.695 29.6388C49.57 29.5019 49.4241 29.4042 49.2574 29.326C49.0907 29.2673 48.8823 29.2087 48.6531 29.1891V29.0913H52.6745V29.2087C52.5079 29.2282 52.3412 29.2477 52.1953 29.2673C52.0494 29.2868 51.9036 29.3651 51.7786 29.4433C51.6535 29.541 51.5494 29.678 51.4661 29.8735C51.3827 30.069 51.3411 30.3232 51.3202 30.6556C51.3202 30.8512 51.2993 31.0271 51.2993 31.1836C51.2993 31.34 51.2993 31.5356 51.2993 31.7507C51.2993 31.9658 51.2993 32.22 51.2993 32.5133C51.2993 32.8066 51.2993 33.1781 51.2993 33.6279C51.4452 33.5301 51.6744 33.3932 51.9244 33.1781C52.1953 32.963 52.4662 32.7284 52.7579 32.4546C53.0496 32.1809 53.3413 31.9071 53.6122 31.6333C53.9039 31.34 54.1539 31.1054 54.3623 30.8903C54.5082 30.7339 54.6332 30.5579 54.7582 30.3819C54.8832 30.2059 54.9249 30.0494 54.9249 29.9126C54.9249 29.678 54.8415 29.502 54.6748 29.4042C54.5082 29.3064 54.2998 29.2282 54.0706 29.1891V29.0913H57.5503V29.2087C57.1127 29.2478 56.6543 29.4237 56.2167 29.7366C55.7584 30.0494 55.2999 30.4014 54.8415 30.8121C54.654 30.9685 54.4665 31.1249 54.279 31.3205C54.0914 31.4965 53.9039 31.6725 53.7164 31.8484C53.5288 32.0244 53.3413 32.2004 53.1746 32.3568C53.0079 32.5328 52.8413 32.6893 52.6954 32.8261C52.7579 32.9044 52.9246 33.0803 53.1746 33.3541C53.4246 33.6279 53.7164 33.9407 54.0706 34.3122C54.4248 34.6838 54.779 35.0749 55.1749 35.4855C55.5708 35.8961 55.9459 36.3068 56.3209 36.6783C56.4043 36.7761 56.5085 36.8738 56.6126 36.9716C56.7168 37.0694 56.8418 37.1476 56.946 37.2258C57.0502 37.3041 57.1335 37.3627 57.2169 37.4214C57.3003 37.48 57.3419 37.5192 57.3627 37.5192C57.4669 37.5582 57.6336 37.5973 57.8212 37.6365C58.0086 37.6756 58.2379 37.7147 58.4671 37.7147V37.832H55.5708V37.8515Z" fill="#111827"/>
<path d="M66.8638 37.8515H58.9253V37.7342C59.1337 37.6951 59.342 37.656 59.5296 37.5778C59.7171 37.4996 59.8629 37.4018 59.9879 37.265C60.0296 37.2258 60.0713 37.1476 60.0921 37.0498C60.1129 36.9521 60.1338 36.8543 60.1547 36.7174C60.1755 36.6001 60.1963 36.4632 60.1963 36.3263C60.1963 36.1895 60.2171 36.0526 60.2171 35.9353C60.2171 35.8179 60.2171 35.6615 60.2171 35.466C60.2171 35.2704 60.2171 35.0553 60.238 34.8207C60.238 34.586 60.238 34.3514 60.238 34.1167C60.238 33.8625 60.238 33.6279 60.238 33.4128V31.0467C60.238 30.9099 60.238 30.7534 60.238 30.597C60.238 30.4406 60.2171 30.3037 60.2171 30.1668C60.1963 30.0299 60.1755 29.9126 60.1547 29.7952C60.1338 29.678 60.0921 29.5997 60.0297 29.5606C59.9046 29.4237 59.7587 29.3455 59.6129 29.3064C59.467 29.2673 59.2795 29.2282 59.0503 29.2087V29.0913H66.2178L67.0933 31.1054L66.9683 31.1641C66.2597 30.3428 65.6138 29.7952 64.9884 29.502C64.8427 29.4433 64.5719 29.3846 64.1761 29.326C63.7803 29.2868 63.3006 29.2478 62.7175 29.2478C62.53 29.2478 62.3425 29.2477 62.1549 29.2673C61.9674 29.2868 61.8216 29.2868 61.7382 29.3064C61.7174 29.4433 61.6965 29.6975 61.6965 30.1081C61.6757 30.5187 61.6757 30.9881 61.6757 31.516C61.6757 31.8289 61.6757 32.0831 61.6757 32.2982C61.6757 32.5133 61.6757 32.6893 61.6757 32.8066C61.6757 32.9435 61.6757 33.0412 61.6757 33.1195C61.6757 33.1781 61.6757 33.2368 61.6757 33.2564C61.7174 33.2564 61.8007 33.2564 61.9257 33.2564C62.0508 33.2564 62.1966 33.2564 62.3841 33.2368C62.5508 33.2368 62.7175 33.2172 62.8842 33.1977C63.0509 33.1781 63.1968 33.1586 63.3006 33.139C63.5508 33.0803 63.7803 33.0022 63.9466 32.9044C64.1136 32.8066 64.2593 32.6893 64.3637 32.5524C64.4675 32.4155 64.5513 32.2591 64.6138 32.0635C64.6764 31.8876 64.7389 31.6725 64.7802 31.4574H64.9259V35.2899H64.7802C64.7176 35.0357 64.6138 34.762 64.4675 34.4883C64.3218 34.2145 64.1761 33.9994 64.0304 33.8625C63.8841 33.7452 63.7177 33.6474 63.5301 33.5887C63.3425 33.5106 63.1134 33.4715 62.8425 33.4519C62.7175 33.4519 62.6133 33.4323 62.5091 33.4323C62.4258 33.4323 62.3425 33.4323 62.2591 33.4323C62.1758 33.4323 62.0924 33.4323 62.009 33.4323C61.9257 33.4323 61.8007 33.4323 61.6757 33.4323C61.6548 33.5496 61.6549 33.7061 61.6549 33.9407C61.6549 34.1558 61.6549 34.3905 61.6549 34.6251C61.6549 34.7229 61.6549 34.8598 61.6549 34.9967C61.6549 35.1335 61.6549 35.2704 61.6549 35.4073C61.6549 35.5441 61.6549 35.6615 61.6549 35.7788C61.6549 35.8961 61.6549 35.9939 61.6549 36.0721C61.6549 36.3263 61.6757 36.5805 61.6965 36.8152C61.7174 37.0499 61.759 37.2258 61.8424 37.3236C61.9257 37.4409 62.1132 37.5192 62.4049 37.5582C62.6967 37.6169 63.0092 37.6365 63.3632 37.6365C63.5095 37.6365 63.6971 37.6365 63.926 37.6169C64.1555 37.6169 64.405 37.5973 64.6551 37.5582C64.9259 37.5192 65.1973 37.4605 65.4262 37.3627C65.6557 37.265 65.8845 37.128 66.0928 36.9716C66.3016 36.7957 66.5099 36.6001 66.7181 36.3459C66.9264 36.0917 67.1346 35.7983 67.3435 35.4464L67.4892 35.4855L66.8638 37.8515Z" fill="#111827"/>
<path d="M77.6347 31.3791C77.5721 31.2422 77.489 31.0857 77.3845 30.9293C77.2807 30.7729 77.1969 30.6165 77.0931 30.4795C76.9887 30.3427 76.9055 30.2058 76.8011 30.0885C76.6973 29.9711 76.6135 29.893 76.5516 29.8343C76.364 29.6779 76.1764 29.5605 75.9681 29.5018C75.7593 29.4432 75.4885 29.4237 75.1552 29.4041C74.9888 29.4041 74.8425 29.4041 74.7174 29.4041C74.5924 29.4041 74.4679 29.4041 74.3635 29.4041C74.2591 29.4041 74.134 29.4041 73.9883 29.4041C73.8632 29.4041 73.6969 29.4041 73.5093 29.4041C73.5093 29.5996 73.5093 29.893 73.5093 30.2253C73.5093 30.5773 73.5093 30.9489 73.5093 31.3204C73.5093 31.7114 73.5093 32.083 73.5093 32.4546C73.5093 32.8261 73.5093 33.1194 73.5093 33.3736V36.072C73.5093 36.3067 73.5093 36.5413 73.5299 36.7564C73.5505 36.9716 73.5924 37.128 73.655 37.2062C73.78 37.3822 73.9677 37.4995 74.1965 37.5777C74.426 37.6364 74.6549 37.6951 74.8425 37.7146V37.8319H70.6339V37.7146C70.8628 37.6951 71.0711 37.6559 71.2799 37.5973C71.4882 37.5386 71.6964 37.4017 71.884 37.1866C71.9253 37.1475 71.9672 37.0693 71.9878 36.9911C72.0091 36.8933 72.0297 36.7955 72.0503 36.6782C72.0716 36.5609 72.0716 36.424 72.0716 36.2871C72.0716 36.1503 72.0716 36.0134 72.0716 35.8765C72.0716 35.7592 72.0716 35.6223 72.0716 35.4268C72.0716 35.2312 72.0716 35.0357 72.0922 34.801C72.0922 34.5664 72.0922 34.3317 72.0922 34.0971C72.0922 33.8624 72.0922 33.6278 72.0922 33.3931V29.365C71.9046 29.365 71.7589 29.365 71.6132 29.365C71.4882 29.365 71.3631 29.365 71.238 29.365C71.1336 29.365 71.0085 29.365 70.8835 29.365C70.759 29.365 70.6127 29.365 70.4463 29.365C70.113 29.365 69.8416 29.4041 69.6334 29.4823C69.4252 29.541 69.2169 29.6583 69.0499 29.8147C68.9874 29.8734 68.9042 29.9516 68.7998 30.0689C68.7166 30.1863 68.6128 30.3036 68.5084 30.4405C68.404 30.5773 68.3208 30.7142 68.217 30.8707C68.1332 31.0271 68.05 31.1835 68.0081 31.3204L67.8831 31.2813L68.2795 28.9739C68.4878 29.013 68.6541 29.0521 68.8211 29.0717C68.9874 29.0912 69.2376 29.1108 69.5502 29.1303C69.8835 29.1303 70.1756 29.1499 70.4251 29.1499C70.6752 29.1499 70.9254 29.1499 71.1755 29.1499C71.4256 29.1499 71.6545 29.1499 71.9046 29.1499C72.1548 29.1499 72.4462 29.1499 72.7801 29.1499C73.0922 29.1499 73.3842 29.1499 73.6343 29.1499C73.8845 29.1499 74.1553 29.1499 74.3841 29.1499C74.6343 29.1499 74.8844 29.1499 75.1345 29.1303C75.3847 29.1303 75.6967 29.1303 76.0094 29.1303C76.3014 29.1303 76.5303 29.0912 76.7179 29.0717C76.9055 29.0325 77.0931 28.9934 77.3014 28.9348L77.7178 31.3008L77.6347 31.3791Z" fill="#111827"/>
<path d="M84.9701 36.5022C84.8038 36.8151 84.5743 37.0693 84.2616 37.2844C83.9702 37.4995 83.6156 37.6755 83.1992 37.7732C82.7827 37.871 82.3237 37.9297 81.8447 37.9297C81.4282 37.9297 81.053 37.9101 80.7609 37.8515C80.4489 37.8123 80.1988 37.7537 80.0112 37.6755C79.8029 37.5973 79.6572 37.5386 79.5528 37.48C79.4483 37.4213 79.3858 37.4017 79.3652 37.4017C79.3445 37.4017 79.282 37.4408 79.1982 37.5386C79.115 37.6364 79.0319 37.7342 78.9693 37.8123H78.8443L78.8024 35.3877H78.9274C79.0112 35.6027 79.115 35.8178 79.2195 36.0329C79.3445 36.248 79.4696 36.4436 79.6153 36.6196C79.761 36.7955 79.9067 36.9716 80.0737 37.1084C80.24 37.2453 80.3864 37.3431 80.5321 37.4213C80.6778 37.4995 80.8654 37.5581 81.1155 37.6364C81.3657 37.7146 81.5945 37.7537 81.824 37.7537C82.47 37.7537 82.9909 37.5973 83.3868 37.2648C83.7826 36.9324 83.9908 36.4827 83.9908 35.9352C83.9908 35.7005 83.9489 35.5049 83.8658 35.329C83.7826 35.153 83.6782 35.0161 83.5531 34.8792C83.428 34.7619 83.2617 34.6446 83.0741 34.5468C82.8865 34.4491 82.6989 34.3708 82.4906 34.3122C82.2824 34.2339 82.0948 34.1753 81.9491 34.1362C81.8028 34.0775 81.6571 34.0384 81.5114 33.9993C81.3863 33.9602 81.2406 33.9015 81.0949 33.8624C80.9485 33.8233 80.7822 33.7646 80.574 33.6865C80.3445 33.6082 80.1362 33.4909 79.928 33.354C79.7191 33.2172 79.5321 33.0411 79.3858 32.8456C79.2401 32.6501 79.0944 32.435 79.0112 32.2199C78.9068 31.9852 78.8649 31.7506 78.8649 31.4768C78.8649 31.0466 78.9487 30.6556 79.115 30.3427C79.282 30.0298 79.5109 29.756 79.8029 29.5605C80.0943 29.3454 80.4276 29.189 80.8028 29.0912C81.178 28.9934 81.5739 28.9348 81.9904 28.9348C82.3862 28.9348 82.7202 28.9739 82.9909 29.0325C83.2617 29.0912 83.4906 29.1695 83.6782 29.2281C83.8451 29.3063 83.9908 29.365 84.074 29.4237C84.1578 29.4823 84.2203 29.5214 84.2203 29.5214C84.241 29.5214 84.3035 29.4627 84.3867 29.3845C84.4699 29.2868 84.5537 29.189 84.6162 29.0912H84.7619V31.3399H84.6162C84.5118 31.0662 84.3867 30.812 84.2203 30.5382C84.0534 30.2645 83.8658 30.0298 83.6575 29.8343C83.4493 29.6192 83.1992 29.4627 82.9071 29.3259C82.6364 29.189 82.3237 29.1303 81.9904 29.1303C81.7196 29.1303 81.4695 29.1695 81.2406 29.2476C81.0111 29.3259 80.8028 29.4237 80.6152 29.5801C80.4489 29.7169 80.3026 29.9125 80.1988 30.1276C80.0943 30.3427 80.0531 30.5969 80.0531 30.8707C80.0531 31.3008 80.1988 31.6528 80.4695 31.907C80.7403 32.1612 81.0949 32.3763 81.5533 32.5327C81.7196 32.5914 81.8866 32.6501 82.0323 32.7088C82.178 32.7674 82.3237 32.8065 82.47 32.8456C82.6157 32.8847 82.7614 32.9434 82.9071 32.9825C83.0535 33.0216 83.2198 33.0803 83.3868 33.1389C83.9702 33.3345 84.4286 33.6278 84.7619 34.0188C85.0952 34.41 85.2409 34.8792 85.2409 35.4659C85.2203 35.8569 85.1371 36.1894 84.9701 36.5022Z" fill="#111827"/>
<path d="M22.7739 42.3099C22.5655 42.6619 22.3572 43.0334 22.1696 43.3854V44.8911H21.5237V43.3854C21.3154 43.0138 21.107 42.6619 20.9195 42.3099C20.7111 41.9579 20.5235 41.5864 20.3152 41.2344H21.0445L21.5237 42.1339C21.5862 42.2512 21.6487 42.3686 21.6904 42.4859C21.7529 42.6032 21.7946 42.7205 21.8571 42.8379H21.8779L22.2321 42.1144L22.6905 41.2148H23.4198C23.1906 41.606 22.9823 41.9579 22.7739 42.3099Z" fill="#EF7D00"/>
<path d="M24.5889 42.2708C24.7973 42.2708 24.9848 42.3099 25.1515 42.388C25.3182 42.4663 25.4433 42.5641 25.5474 42.7205C25.6099 42.8183 25.6724 42.9551 25.7141 43.092C25.7558 43.2289 25.7558 43.4049 25.7558 43.5809C25.7558 43.7764 25.7349 43.9524 25.7141 44.0893C25.6724 44.2262 25.6307 44.363 25.5683 44.4608C25.4641 44.6172 25.3182 44.7541 25.1307 44.8324C24.9432 44.9105 24.7348 44.9497 24.5264 44.9497C24.3181 44.9497 24.1305 44.9105 23.9638 44.8519C23.7972 44.7932 23.6722 44.6759 23.568 44.539C23.4221 44.3239 23.3387 44.0111 23.3387 43.6005C23.3387 43.4635 23.3387 43.3267 23.3596 43.1898C23.3805 43.0725 23.4221 42.9551 23.4638 42.8573C23.568 42.6618 23.7138 42.525 23.9014 42.4076C24.1097 42.3099 24.3389 42.2708 24.5889 42.2708ZM24.5681 42.7987C24.4639 42.7987 24.3597 42.8183 24.2764 42.8769C24.1931 42.9356 24.1305 42.9942 24.0889 43.092C24.0472 43.1702 24.0264 43.2485 24.0264 43.3267C24.0055 43.4049 24.0055 43.5027 24.0055 43.6005C24.0055 43.6982 24.0055 43.796 24.0264 43.8742C24.0472 43.9524 24.068 44.0306 24.0889 44.0893C24.1305 44.187 24.1931 44.2457 24.2764 44.3044C24.3597 44.363 24.4639 44.3826 24.5681 44.3826C24.6931 44.3826 24.7973 44.3435 24.8806 44.2848C24.9848 44.2262 25.0474 44.1284 25.089 44.0111C25.1098 43.9524 25.1307 43.8937 25.1307 43.8351C25.1307 43.7569 25.1515 43.6591 25.1515 43.5613C25.1515 43.3657 25.1307 43.2093 25.0682 43.1115C25.0265 43.0138 24.964 42.9356 24.8806 42.8769C24.7556 42.8378 24.6723 42.7987 24.5681 42.7987Z" fill="#EF7D00"/>
<path d="M27.0024 42.2896V43.8343C27.0024 44.0103 27.0441 44.1472 27.1274 44.2254C27.2107 44.3036 27.3358 44.3623 27.5233 44.3623C27.6692 44.3623 27.7942 44.3232 27.8984 44.2254C28.0026 44.1276 28.0442 44.0103 28.0442 43.8343V42.2896H28.6693V44.9098H28.0442V44.6556H28.0234C27.94 44.7534 27.8358 44.8316 27.69 44.8707C27.565 44.9098 27.44 44.9489 27.3149 44.9489C27.0233 44.9489 26.794 44.8707 26.6273 44.7142C26.4606 44.5578 26.3564 44.3232 26.3564 44.0103V42.2896H27.0024Z" fill="#EF7D00"/>
<path d="M30.5651 42.8371C30.4192 42.8371 30.2942 42.8761 30.19 42.9739C30.0858 43.0717 30.0442 43.189 30.0442 43.365V44.9293H29.4191V42.3091H30.0442V42.622H30.065C30.2316 42.3873 30.4609 42.2896 30.7317 42.2896C30.8359 42.2896 30.9401 42.3091 31.0234 42.3287C31.1068 42.3482 31.1901 42.3873 31.2735 42.4264L31.0443 42.9739C30.9609 42.9348 30.8984 42.8957 30.8151 42.8761C30.7109 42.8371 30.6484 42.8371 30.5651 42.8371Z" fill="#EF7D00"/>
<path d="M34.1913 42.2708C34.3997 42.2708 34.5872 42.3099 34.754 42.388C34.9206 42.4663 35.0456 42.5641 35.1498 42.7205C35.2123 42.8183 35.2749 42.9551 35.3165 43.092C35.3582 43.2289 35.3582 43.4049 35.3582 43.5809C35.3582 43.7764 35.3373 43.9524 35.3165 44.0893C35.2749 44.2262 35.2332 44.363 35.1707 44.4608C35.0665 44.6172 34.9206 44.7541 34.7331 44.8324C34.5456 44.9105 34.3372 44.9497 34.1289 44.9497C33.9205 44.9497 33.733 44.9105 33.5663 44.8519C33.3996 44.7932 33.2745 44.6759 33.1704 44.539C33.0245 44.3239 32.9412 44.0111 32.9412 43.6005C32.9412 43.4635 32.9412 43.3267 32.962 43.1898C32.9829 43.0725 33.0245 42.9551 33.0662 42.8573C33.1703 42.6618 33.3162 42.525 33.5038 42.4076C33.7121 42.3099 33.9413 42.2708 34.1913 42.2708ZM34.1705 42.7987C34.0663 42.7987 33.9622 42.8183 33.8788 42.8769C33.7954 42.9356 33.733 42.9942 33.6913 43.092C33.6496 43.1702 33.6288 43.2485 33.6288 43.3267C33.608 43.4049 33.608 43.5027 33.608 43.6005C33.608 43.6982 33.608 43.796 33.6288 43.8742C33.6496 43.9524 33.6704 44.0306 33.6913 44.0893C33.733 44.187 33.7954 44.2457 33.8788 44.3044C33.9622 44.363 34.0663 44.3826 34.1705 44.3826C34.2955 44.3826 34.3997 44.3435 34.4831 44.2848C34.5872 44.2262 34.6498 44.1284 34.6914 44.0111C34.7123 43.9524 34.7331 43.8937 34.7331 43.8351C34.7331 43.7569 34.754 43.6591 34.754 43.5613C34.754 43.3657 34.7331 43.2093 34.6706 43.1115C34.6289 43.0138 34.5664 42.9356 34.4831 42.8769C34.3789 42.8378 34.2747 42.7987 34.1705 42.7987Z" fill="#EF7D00"/>
<path d="M37.6537 44.9105V43.3657C37.6537 43.1898 37.612 43.0725 37.5287 42.9747C37.4453 42.8769 37.3203 42.8378 37.1328 42.8378C36.9869 42.8378 36.8411 42.8769 36.7577 42.9747C36.6536 43.0725 36.6118 43.1898 36.6118 43.3657V44.9105H35.9868V42.2903H36.6118V42.5641H36.6327C36.7161 42.4663 36.8411 42.388 36.9661 42.3489C37.0911 42.2903 37.2369 42.2708 37.362 42.2708C37.6537 42.2708 37.8829 42.3489 38.0496 42.5054C38.2163 42.6618 38.2996 42.8965 38.2996 43.1898V44.9105H37.6537Z" fill="#EF7D00"/>
<path d="M39.7785 44.9105C39.6741 44.9105 39.5697 44.8909 39.4653 44.8714C39.3818 44.8519 39.2983 44.8127 39.2148 44.7541C39.1521 44.6954 39.0895 44.6367 39.0477 44.539C39.006 44.4412 38.9851 44.3434 38.9851 44.2065V41.0583H39.6324V44.1088C39.6324 44.2065 39.6532 44.2652 39.695 44.3043C39.7368 44.3434 39.7994 44.363 39.9038 44.363H40.0082V44.8909H39.7785V44.9105Z" fill="#EF7D00"/>
<path d="M40.5269 41.7812V41.2336H41.1533V41.7812H40.5269ZM40.5269 44.9099V42.2896H41.1533V44.9099H40.5269Z" fill="#EF7D00"/>
<path d="M43.5894 44.9105V43.3657C43.5894 43.1898 43.5477 43.0725 43.4643 42.9747C43.381 42.8769 43.256 42.8378 43.0685 42.8378C42.9226 42.8378 42.7976 42.8769 42.6934 42.9747C42.5892 43.0725 42.5476 43.1898 42.5476 43.3657V44.9105H41.9016V42.2903H42.5476V42.5641H42.5684C42.6518 42.4663 42.7768 42.388 42.9018 42.3489C43.0268 42.2903 43.1727 42.2708 43.2977 42.2708C43.5894 42.2708 43.8186 42.3489 43.9853 42.5054C44.152 42.6618 44.2353 42.8965 44.2353 43.1898V44.9105H43.5894Z" fill="#EF7D00"/>
<path d="M45.4411 43.7762C45.4411 43.8545 45.4619 43.9326 45.4828 44.0109C45.5036 44.0891 45.5453 44.1478 45.587 44.2064C45.6286 44.2651 45.6912 44.3042 45.7745 44.3433C45.8578 44.3824 45.9412 44.402 46.0454 44.402C46.1287 44.402 46.2329 44.3824 46.3579 44.3433C46.4829 44.3042 46.6079 44.2455 46.7121 44.1478C46.7746 44.226 46.8372 44.2846 46.8996 44.3629C46.9622 44.4411 47.0246 44.4997 47.0872 44.578C46.9205 44.7148 46.7538 44.8126 46.5663 44.8713C46.3787 44.93 46.2121 44.9495 46.0245 44.9495C45.8786 44.9495 45.7328 44.93 45.587 44.8908C45.4411 44.8517 45.3161 44.7735 45.1911 44.6758C45.0661 44.578 44.9827 44.4411 44.8994 44.2651C44.816 44.0891 44.7952 43.874 44.7952 43.6003C44.7952 43.3461 44.8368 43.131 44.8994 42.9549C44.9827 42.779 45.0661 42.6421 45.1911 42.5443C45.3161 42.4465 45.4411 42.3684 45.587 42.3097C45.7328 42.2706 45.8786 42.2314 46.0245 42.2314C46.2121 42.2314 46.3787 42.2706 46.5246 42.3292C46.6705 42.3879 46.7955 42.4661 46.8996 42.5834C47.0038 42.7007 47.0872 42.8181 47.1288 42.9745C47.1914 43.131 47.2122 43.3069 47.2122 43.4829V43.7371H45.4411V43.7762ZM45.9828 42.8181C45.837 42.8181 45.712 42.8572 45.6078 42.9549C45.5036 43.0527 45.4619 43.1896 45.4411 43.3656H46.5037C46.4829 43.1896 46.4413 43.0527 46.3371 42.9549C46.2537 42.8572 46.1287 42.8181 45.9828 42.8181Z" fill="#EF7D00"/>
<path d="M51.5697 43.5612C51.5697 43.7177 51.5489 43.8741 51.5281 44.0306C51.5072 44.187 51.4655 44.3434 51.3822 44.4803C51.3197 44.6172 51.2155 44.7149 51.0696 44.8127C50.9446 44.8909 50.7571 44.9496 50.5487 44.9496C50.4237 44.9496 50.2987 44.93 50.1737 44.8909C50.0487 44.8518 49.9445 44.7736 49.8611 44.6758H49.8403V44.93H49.1943V41.0974H49.8403V42.564H49.8611C49.9653 42.4662 50.0695 42.4075 50.1945 42.3489C50.3195 42.3098 50.4445 42.2902 50.5487 42.2902C50.7571 42.2902 50.9238 42.3293 51.0488 42.4075C51.1738 42.4858 51.278 42.5835 51.3613 42.7204C51.4239 42.8377 51.4863 42.9746 51.5072 43.131C51.5489 43.2484 51.5697 43.4048 51.5697 43.5612ZM50.903 43.6003C50.903 43.5026 50.903 43.4244 50.8821 43.3266C50.8821 43.2288 50.8404 43.1506 50.8196 43.0724C50.778 42.9942 50.7362 42.9355 50.6529 42.8964C50.5904 42.8573 50.4862 42.8182 50.3612 42.8182C50.2362 42.8182 50.1529 42.8377 50.0903 42.8964C50.0279 42.9551 49.9653 43.0138 49.9236 43.0919C49.882 43.1702 49.8611 43.2484 49.8611 43.3461C49.8403 43.4439 49.8403 43.5222 49.8403 43.6003C49.8403 43.6786 49.8403 43.7764 49.8611 43.8545C49.8611 43.9523 49.9028 44.0305 49.9236 44.1087C49.9653 44.187 50.007 44.2457 50.0903 44.3043C50.1529 44.3629 50.257 44.3825 50.3821 44.3825C50.5071 44.3825 50.5904 44.3629 50.6738 44.3043C50.7362 44.2457 50.7988 44.187 50.8404 44.1087C50.8821 44.0305 50.903 43.9523 50.903 43.8545C50.903 43.7764 50.903 43.6786 50.903 43.6003Z" fill="#EF7D00"/>
<path d="M53.3418 42.8371C53.1959 42.8371 53.0709 42.8761 52.9667 42.9739C52.8625 43.0717 52.8209 43.189 52.8209 43.365V44.9293H52.1958V42.3091H52.8209V42.622H52.8417C53.0084 42.3873 53.2376 42.2896 53.5085 42.2896C53.6126 42.2896 53.7168 42.3091 53.8002 42.3287C53.8835 42.3482 53.9669 42.3873 54.0502 42.4264L53.821 42.9739C53.7377 42.9348 53.6752 42.8957 53.5918 42.8761C53.4876 42.8371 53.4252 42.8371 53.3418 42.8371Z" fill="#EF7D00"/>
<path d="M55.4035 42.2708C55.6119 42.2708 55.7994 42.3099 55.9661 42.388C56.1328 42.4663 56.2578 42.5641 56.362 42.7205C56.4245 42.8183 56.487 42.9551 56.5287 43.092C56.5704 43.2289 56.5703 43.4049 56.5703 43.5809C56.5703 43.7764 56.5495 43.9524 56.5287 44.0893C56.487 44.2262 56.4453 44.363 56.3829 44.4608C56.2787 44.6172 56.1328 44.7541 55.9453 44.8324C55.7578 44.9105 55.5494 44.9497 55.341 44.9497C55.1327 44.9497 54.9451 44.9105 54.7784 44.8519C54.6118 44.7932 54.4868 44.6759 54.3826 44.539C54.2367 44.3239 54.1533 44.0111 54.1533 43.6005C54.1533 43.4635 54.1533 43.3267 54.1742 43.1898C54.195 43.0725 54.2367 42.9551 54.2784 42.8573C54.3826 42.6618 54.5284 42.525 54.7159 42.4076C54.9243 42.3099 55.1535 42.2708 55.4035 42.2708ZM55.3827 42.7987C55.2785 42.7987 55.1743 42.8183 55.091 42.8769C55.0077 42.9356 54.9451 42.9942 54.8826 43.092C54.8409 43.1702 54.8201 43.2485 54.8201 43.3267C54.7993 43.4049 54.7993 43.5027 54.7993 43.6005C54.7993 43.6982 54.7993 43.796 54.8201 43.8742C54.841 43.9524 54.8618 44.0306 54.8826 44.0893C54.9243 44.187 54.9868 44.2457 55.0701 44.3044C55.1535 44.363 55.2577 44.3826 55.3619 44.3826C55.4869 44.3826 55.5911 44.3435 55.6744 44.2848C55.7786 44.2262 55.8411 44.1284 55.8828 44.0111C55.9036 43.9524 55.9244 43.8937 55.9244 43.8351C55.9244 43.7569 55.9453 43.6591 55.9453 43.5613C55.9453 43.3657 55.9244 43.2093 55.862 43.1115C55.8202 43.0138 55.7578 42.9356 55.6744 42.8769C55.5911 42.8378 55.4869 42.7987 55.3827 42.7987Z" fill="#EF7D00"/>
<path d="M59.051 44.9105C58.9051 44.7149 58.7801 44.5194 58.6342 44.3239C58.5092 44.1283 58.3634 43.9328 58.2175 43.7372C58.155 43.7959 58.0925 43.8741 58.03 43.9328C57.9674 43.9914 57.9049 44.0697 57.8424 44.1283V44.8909H57.1965V41.0583H57.8424V43.3657H57.8633L58.405 42.7791L58.8843 42.2903H59.6552L58.6551 43.3071C58.8425 43.5808 59.0301 43.835 59.2176 44.1088C59.4052 44.3825 59.5927 44.6367 59.7802 44.9105H59.051Z" fill="#EF7D00"/>
<path d="M60.6117 43.7762C60.6117 43.8545 60.6326 43.9326 60.6534 44.0109C60.6743 44.0891 60.7159 44.1478 60.7576 44.2064C60.7993 44.2651 60.8618 44.3042 60.9451 44.3433C61.0285 44.3824 61.1118 44.402 61.216 44.402C61.2994 44.402 61.4035 44.3824 61.5285 44.3433C61.6536 44.3042 61.7786 44.2455 61.8827 44.1478C61.9453 44.226 62.0078 44.2846 62.0703 44.3629C62.1328 44.4411 62.1953 44.4997 62.2578 44.578C62.0911 44.7148 61.9244 44.8126 61.7369 44.8713C61.5494 44.93 61.3827 44.9495 61.1952 44.9495C61.0493 44.9495 60.9035 44.93 60.7576 44.8908C60.6117 44.8517 60.4867 44.7735 60.3617 44.6758C60.2367 44.578 60.1534 44.4411 60.07 44.2651C60.0075 44.0891 59.9658 43.874 59.9658 43.6003C59.9658 43.3461 60.0075 43.131 60.07 42.9549C60.1534 42.779 60.2367 42.6421 60.3617 42.5443C60.4867 42.4465 60.6117 42.3684 60.7576 42.3097C60.9035 42.2706 61.0493 42.2314 61.1952 42.2314C61.3827 42.2314 61.5494 42.2706 61.6953 42.3292C61.8411 42.3879 61.9661 42.4661 62.0703 42.5834C62.1745 42.7007 62.2578 42.8181 62.2995 42.9745C62.362 43.131 62.3828 43.3069 62.3828 43.4829V43.7371H60.6117V43.7762ZM61.1535 42.8181C61.0076 42.8181 60.8826 42.8572 60.7785 42.9549C60.6743 43.0527 60.6326 43.1896 60.6117 43.3656H61.6744C61.6536 43.1896 61.6119 43.0527 61.5077 42.9549C61.4244 42.8572 61.2994 42.8181 61.1535 42.8181Z" fill="#EF7D00"/>
<path d="M64.1551 42.8371C64.0094 42.8371 63.8843 42.8761 63.7799 42.9739C63.6761 43.0717 63.6342 43.189 63.6342 43.365V44.9293H62.9884V42.3091H63.6136V42.622H63.6342C63.8012 42.3873 64.03 42.2896 64.3008 42.2896C64.4052 42.2896 64.5097 42.3091 64.5928 42.3287C64.676 42.3482 64.7598 42.3873 64.843 42.4264L64.6135 42.9739C64.5303 42.9348 64.4678 42.8957 64.3846 42.8761C64.3008 42.8371 64.2176 42.8371 64.1551 42.8371Z" fill="#EF7D00"/>
<path d="M14.2121 34.3308C14.2121 34.8783 13.7328 35.328 13.1494 35.328C12.566 35.328 12.0868 34.8783 12.0868 34.3308C12.0868 33.7832 12.566 33.3335 13.1494 33.3335C13.7328 33.3531 14.2121 33.7832 14.2121 34.3308Z" fill="#111827"/>
<defs>
<linearGradient id="paint0_linear_422_210" x1="43.1291" y1="0.249735" x2="43.1291" y2="26.9414" gradientUnits="userSpaceOnUse">
<stop stop-color="#F39200"/>
<stop offset="1" stop-color="#F07E00"/>
</linearGradient>
</defs>
</svg>
